SplineFontDB: 3.0
FontName: Hermit-bold
FullName: Hermit Bold
FamilyName: Hermit
Weight: Bold
Copyright: Created by Pablo Caro <me@pcaro.es> - https://pcaro.es/\n\nUnder OFL 1.1 License.
UComments: "2013-9-8: Created."

StartChar: a
Encoding: 97 97 0
Width: 617
Flags: W
LayerCount: 2
Fore
SplineSet
302 197.5 m 2
 241.788000794 197.5 175.5 194.329668075 175.5 144.2875 c 0
 175.5 91.7062231608 232.781212993 90 308 90 c 2
 425 90 l 1
 441.5 90 l 1
 441.5 197.5 l 1
 428 197.5 l 1
 308 197.5 l 1
 302 197.5 l 2
138.789536015 362.582119972 m 1
 135.382352941 368.970588235 l 1
 95.3823529412 439.117647059 l 1
 91.7588400355 444.941149943 l 1
 98.6458980338 447.892746228 l 2
 160.913615702 474.578910943 231.04691218 500 308 500 c 0
 529.832000873 500 546.5 336.710766571 546.5 293.780788177 c 2
 546.5 7.5 l 1
 546.5 0 l 1
 539 0 l 1
 428 0 l 1
 308 0 l 2
 167.681301053 0 70.5 36.0908469631 70.5 151.737903226 c 0
 70.5 281.11546225 168.31767478 302.5 308 302.5 c 2
 432 302.5 l 1
 441.355360038 302.5 l 1
 438.045762554 392.254178955 380.161011131 410 308 410 c 0
 229.534876925 410 190.55370802 387.889048508 145.29407599 365.762117293 c 2
 138.789536015 362.582119972 l 1
EndSplineSet
EndChar

StartChar: b
Encoding: 98 98 1
Width: 617
VWidth: 975
Flags: W
LayerCount: 2
Fore
SplineSet
308 500 m 2
 545.779649639 500 546.500096609 250 546.500096609 250 c 2
 546.500096609 249.579725497 545.240536631 0 308 0 c 2
 190 0 l 1
 78 0 l 1
 70.5 0 l 1
 70.5 7.5 l 1
 70.5 362.26 l 1
 70.5 742.5 l 1
 70.5 750 l 1
 78 750 l 1
 168 750 l 1
 175.5 750 l 1
 175.5 742.5 l 1
 175.5 617.5 l 1
 175.5 512.5 l 1
 175.5 500 l 1
 186 500 l 1
 308 500 l 2
175.5 90 m 1
 190 90 l 1
 308 90 l 2
 438.564685362 90 441.445020714 245.475843301 441.499612839 250 c 0
 441.430863586 255.697385727 438.072364242 410 308 410 c 2
 184 410 l 1
 175.5 410 l 1
 175.5 90 l 1
EndSplineSet
EndChar

StartChar: c
Encoding: 99 99 2
Width: 617
Flags: W
LayerCount: 2
Fore
SplineSet
546.5 160 m 1
 546.5 152.5 l 2
 546.5 -0.0487173199116 396.574837695 0 308 0 c 0
 163.873419025 0 70.5 91.3756530963 70.5 250 c 0
 70.5 408.624379326 163.873471444 500 308 500 c 0
 396.576486261 500 546.5 500 546.5 347.5 c 2
 546.5 340 l 1
 539 340 l 1
 449 340 l 1
 441.5 340 l 1
 441.5 347.5 l 2
 441.5 408.30937505 358.877663181 410 310 410 c 2
 308 410 l 2
 223.012728505 410 175.5 341.585134078 175.5 250 c 0
 175.5 158.415015592 223.025004321 90 308 90 c 2
 310 90 l 2
 358.876341265 90 441.5 91.6907074296 441.5 152.5 c 2
 441.5 160 l 1
 449 160 l 1
 539 160 l 1
 546.5 160 l 1
EndSplineSet
EndChar

StartChar: d
Encoding: 100 100 3
Width: 617
VWidth: 975
Flags: W
LayerCount: 2
Fore
SplineSet
308 0 m 2
 70.1969769884 0 70.5000067436 250.011316818 70.5000067436 250.011316818 c 2
 70.5000067436 250.344610194 70.7339374947 500 308 500 c 2
 432 500 l 1
 441.5 500 l 1
 441.5 512.5 l 1
 441.5 617.5 l 1
 441.5 742.5 l 1
 441.5 750 l 1
 449 750 l 1
 539 750 l 1
 546.5 750 l 1
 546.5 742.5 l 1
 546.5 362.26 l 1
 546.5 7.5 l 1
 546.5 0 l 1
 539 0 l 1
 427 0 l 1
 308 0 l 2
308 90 m 2
 428 90 l 1
 441.5 90 l 1
 441.5 410 l 1
 432 410 l 1
 308 410 l 2
 176.525187652 410 175.506984613 252.288622377 175.500015029 249.998811888 c 0
 175.510513026 246.549764894 177.018582638 90 308 90 c 2
EndSplineSet
EndChar

StartChar: e
Encoding: 101 101 4
Width: 617
Flags: W
LayerCount: 2
Fore
SplineSet
308 410 m 0
 219.469802493 410 177.967730714 411.786190459 175.574155351 310 c 1
 441.424251076 310 l 1
 438.973158547 412.62945675 396.021428615 410 308 410 c 0
70.5 250 m 0
 70.5 496.654910234 166.87406298 500 308 500 c 0
 449.099472325 500 546.5 496.676751841 546.5 248.72983871 c 2
 546.5 204.818548387 l 1
 546.5 197.5 l 1
 539 197.5 l 1
 175.574155351 197.5 l 1
 177.989644638 87.0780698189 220.025450823 90 308 90 c 2
 494 90 l 1
 501.5 90 l 1
 501.5 83.6538461538 l 1
 501.5 7.5 l 1
 501.5 0 l 1
 494 0 l 1
 308 0 l 2
 166.875096477 0 70.5 3.34317474961 70.5 250 c 0
EndSplineSet
EndChar

StartChar: f
Encoding: 102 102 5
Width: 617
Flags: W
LayerCount: 2
Fore
SplineSet
140.5 0 m 1
 140.5 7.5 l 1
 140.5 537.5 l 1
 140.5 538.5 l 2
 140.5 583.021344143 142.003927752 750 333 750 c 0
 409.952978248 750 480.086507142 720.342001344 542.354101966 689.208203932 c 2
 549.241159964 685.764674933 l 1
 545.617647059 678.970588235 l 1
 505.617647059 603.970588235 l 1
 502.210463985 597.582119972 l 1
 495.70592401 600.762117293 l 2
 450.446380677 622.889005145 411.46499217 645 333 645 c 0
 263.068613374 645 245.5 608.004064443 245.5 537.5 c 2
 245.5 347.5 l 1
 378 347.5 l 1
 385.5 347.5 l 1
 385.5 340 l 1
 385.5 250 l 1
 385.5 242.5 l 1
 378 242.5 l 1
 245.5 242.5 l 1
 245.5 7.5 l 1
 245.5 0 l 1
 238 0 l 1
 148 0 l 1
 140.5 0 l 1
EndSplineSet
EndChar

StartChar: g
Encoding: 103 103 6
Width: 617
Flags: W
LayerCount: 2
Fore
SplineSet
546.5 250.110837438 m 2
 546.5 7.5 l 1
 546.5 -37.5 l 2
 546.5 -81.7374340779 529.831753968 -250 308 -250 c 0
 231.047021752 -250 160.913492858 -220.342001344 98.6458980338 -189.208203932 c 2
 91.7588400355 -185.764674933 l 1
 95.3823529412 -178.970588235 l 1
 135.382352941 -103.970588235 l 1
 138.789536015 -97.582119972 l 1
 145.29407599 -100.762117293 l 2
 190.553619323 -122.889005145 229.53500783 -145 308 -145 c 0
 382.109895679 -145 441.5 -127.697091161 441.5 -37.5 c 2
 441.5 7.5 l 1
 441.5 10.567149761 l 1
 425.107839151 5.3045241593 390.989440224 0 308 0 c 0
 166.875096477 0 70.5 3.34317474961 70.5 250 c 0
 70.5 496.654910234 166.87406298 500 308 500 c 0
 449.099472325 500 546.5 496.69501665 546.5 250.110837438 c 2
441.5 250 m 0
 441.5 414.024405552 396.61561003 410 308 410 c 0
 219.416094223 410 175.5 414.099305305 175.5 250 c 0
 175.5 85.89906149 219.418113675 90 308 90 c 0
 396.615802862 90 441.5 85.9763582002 441.5 250 c 0
EndSplineSet
EndChar

StartChar: h
Encoding: 104 104 7
Width: 617
VWidth: 975
Flags: W
LayerCount: 2
Fore
SplineSet
546.5 0 m 1
 539 0 l 1
 449 0 l 1
 441.5 0 l 1
 441.5 7.5 l 1
 441.5 257.470618657 l 2
 441.49220047 258.466073148 439.976445795 410 308 410 c 2
 184 410 l 1
 175.5 410 l 1
 175.5 7.5 l 1
 175.5 0 l 1
 168 0 l 1
 78 0 l 1
 70.5 0 l 1
 70.5 7.5 l 1
 70.5 362.26 l 1
 70.5 742.5 l 1
 70.5 750 l 1
 78 750 l 1
 168 750 l 1
 175.5 750 l 1
 175.5 742.5 l 1
 175.5 617.5 l 1
 175.5 512.5 l 1
 175.5 500 l 1
 186 500 l 1
 308 500 l 2
 545.779754262 500 546.5 250.129181336 546.5 250.129181336 c 1
 546.5 7.5 l 1
 546.5 0 l 1
EndSplineSet
EndChar

StartChar: i
Encoding: 105 105 8
Width: 617
Flags: W
LayerCount: 2
Fore
SplineSet
115.5 500 m 1
 123 500 l 1
 354 500 l 1
 361.5 500 l 1
 361.5 492.5 l 1
 361.5 90 l 1
 539 90 l 1
 546.5 90 l 1
 546.5 83.6538461538 l 1
 546.5 7.5 l 1
 546.5 0 l 1
 539 0 l 1
 78 0 l 1
 70.5 0 l 1
 70.5 7.5 l 1
 70.5 83.6538461538 l 1
 70.5 90 l 1
 78 90 l 1
 256.5 90 l 1
 256.5 410 l 1
 123 410 l 1
 115.5 410 l 1
 115.5 416.346153846 l 1
 115.5 492.5 l 1
 115.5 500 l 1
166.5 652.5 m 0
 166.5 701.920582584 214.600613345 750 264 750 c 0
 313.420582584 750 361.5 701.899386655 361.5 652.5 c 0
 361.5 603.079417416 313.399386655 555 264 555 c 0
 214.579417416 555 166.5 603.100613345 166.5 652.5 c 0
EndSplineSet
EndChar

StartChar: j
Encoding: 106 106 9
Width: 617
Flags: W
LayerCount: 2
Fore
SplineSet
537.5 492.5 m 1
 537.5 7.5 l 1
 537.5 -37.5 l 2
 537.5 -81.7374340779 520.831753968 -250 299 -250 c 0
 222.047021752 -250 151.913492858 -220.342001344 89.6458980338 -189.208203932 c 2
 82.7588400355 -185.764674933 l 1
 86.3823529412 -178.970588235 l 1
 126.382352941 -103.970588235 l 1
 129.789536015 -97.582119972 l 1
 136.29407599 -100.762117293 l 2
 181.553619323 -122.889005145 220.53500783 -145 299 -145 c 0
 373.109895679 -145 432.5 -127.697091161 432.5 -37.5 c 2
 432.5 7.5 l 1
 432.5 410 l 1
 158 410 l 1
 150.5 410 l 1
 150.5 416.346153846 l 1
 150.5 492.5 l 1
 150.5 500 l 1
 158 500 l 1
 530 500 l 1
 537.5 500 l 1
 537.5 492.5 l 1
291.5 652.5 m 0
 291.5 701.809763075 338.515456595 750 388 750 c 0
 437.420582584 750 485.5 701.899386655 485.5 652.5 c 0
 485.5 603.079417416 437.399386655 555 388 555 c 0
 338.499072603 555 291.5 603.208480513 291.5 652.5 c 0
EndSplineSet
EndChar

StartChar: k
Encoding: 107 107 10
Width: 617
Flags: W
LayerCount: 2
Fore
SplineSet
553.404916712 -1.86517468137e-14 m 1
 539 0 l 1
 430 0 l 1
 426.124664091 0 l 1
 423.88261362 3.16092361435 l 1
 308.081102045 166.422071081 l 1
 269.605758472 110.824666718 232.185155239 58.3580388815 194.174095894 3.24200283147 c 2
 191.938231873 1.7763568394e-14 l 1
 188 0 l 1
 78 0 l 1
 70.5 0 l 1
 70.5 7.5 l 1
 70.5 742.5 l 1
 70.5 750 l 1
 78 750 l 1
 168 750 l 1
 175.5 750 l 1
 175.5 742.5 l 1
 175.5 144.236682339 l 1
 258.340341914 262.172510784 341.372207815 379.238210338 423.860416397 496.807611076 c 2
 426.100237658 500 l 1
 430 500 l 1
 539 500 l 1
 553.390701673 500 l 1
 545.147717139 488.547577564 l 2
 488.189192959 409.412031749 429.878776255 328.800570057 373.152455749 250.003413263 c 1
 545.144239404 11.4572500803 l 1
 553.404916712 -1.86517468137e-14 l 1
EndSplineSet
EndChar

StartChar: l
Encoding: 108 108 11
Width: 617
Flags: W
LayerCount: 2
Fore
SplineSet
166.5 750 m 1
 174 750 l 1
 354 750 l 1
 361.5 750 l 1
 361.5 742.5 l 1
 361.5 90 l 1
 539 90 l 1
 546.5 90 l 1
 546.5 83.6538461538 l 1
 546.5 7.5 l 1
 546.5 0 l 1
 539 0 l 1
 78 0 l 1
 70.5 0 l 1
 70.5 7.5 l 1
 70.5 83.6538461538 l 1
 70.5 90 l 1
 78 90 l 1
 256.5 90 l 1
 256.5 645 l 1
 174 645 l 1
 166.5 645 l 1
 166.5 652.5 l 1
 166.5 742.5 l 1
 166.5 750 l 1
EndSplineSet
EndChar

StartChar: m
Encoding: 109 109 12
Width: 617
Flags: W
LayerCount: 2
Fore
SplineSet
175.5 0 m 1
 168 0 l 1
 78 0 l 1
 70.5 0 l 1
 70.5 7.5 l 1
 70.5 269.519704433 l 2
 70.5 494.339683958 76.3320649245 500 308 500 c 0
 539.64066596 500 546.5 494.390848713 546.5 269.519704433 c 2
 546.5 7.5 l 1
 546.5 0 l 1
 539 0 l 1
 449 0 l 1
 441.5 0 l 1
 441.5 7.5 l 1
 441.5 277.5 l 1
 441.5 285.5 l 2
 441.5 413.918660481 444.335783214 409.886474694 361.5 409.997381752 c 1
 361.5 7.5 l 1
 361.5 0 l 1
 354 0 l 1
 264 0 l 1
 256.5 0 l 1
 256.5 7.5 l 1
 256.5 409.843681937 l 1
 171.24495736 408.062787218 175.5 413.498604933 175.5 277.5 c 2
 175.5 7.5 l 1
 175.5 0 l 1
EndSplineSet
EndChar

StartChar: n
Encoding: 110 110 13
Width: 617
Flags: W
LayerCount: 2
Fore
SplineSet
175.5 0 m 1
 168 0 l 1
 78 0 l 1
 70.5 0 l 1
 70.5 7.5 l 1
 70.5 269.519704433 l 2
 70.5 494.339683958 76.3320649245 500 308 500 c 0
 545.361879231 500 546.5 269.539828336 546.5 269.539828336 c 1
 546.5 7.5 l 1
 546.5 0 l 1
 539 0 l 1
 449 0 l 1
 441.5 0 l 1
 441.5 7.5 l 1
 441.5 277.46591927 l 2
 441.497137308 277.780902946 440.655060268 410 308 410 c 0
 169.667354335 410 175.5 415.832654094 175.5 277.5 c 2
 175.5 7.5 l 1
 175.5 0 l 1
EndSplineSet
EndChar

StartChar: o
Encoding: 111 111 14
Width: 617
Flags: W
LayerCount: 2
Fore
SplineSet
308 500 m 0
 449.099472325 500 546.5 496.693550737 546.5 250 c 0
 546.5 3.30878884564 449.100704265 0 308 0 c 0
 166.875096477 0 70.5 3.34317474961 70.5 250 c 0
 70.5 496.654910234 166.87406298 500 308 500 c 0
441.5 250 m 0
 441.5 414.024405552 396.61561003 410 308 410 c 0
 219.416094223 410 175.5 414.099305305 175.5 250 c 0
 175.5 85.89906149 219.418113675 90 308 90 c 0
 396.615802862 90 441.5 85.9763582002 441.5 250 c 0
EndSplineSet
EndChar

StartChar: p
Encoding: 112 112 15
Width: 617
VWidth: 975
Flags: W
LayerCount: 2
Fore
SplineSet
308 500 m 2
 545.779649639 500 546.500096609 250 546.500096609 250 c 2
 546.500096609 249.579725497 545.240536631 0 308 0 c 2
 186 0 l 1
 175.5 0 l 1
 175.5 -12.5 l 1
 175.5 -117.5 l 1
 175.5 -242.5 l 1
 175.5 -250 l 1
 168 -250 l 1
 78 -250 l 1
 70.5 -250 l 1
 70.5 -242.5 l 1
 70.5 137.74 l 1
 70.5 492.5 l 1
 70.5 500 l 1
 78 500 l 1
 190 500 l 1
 308 500 l 2
308 410 m 2
 190 410 l 1
 175.5 410 l 1
 175.5 90 l 1
 184 90 l 1
 308 90 l 2
 438.564685362 90 441.445020714 245.475843301 441.499612839 250 c 0
 441.430863586 255.697385727 438.072364242 410 308 410 c 2
EndSplineSet
EndChar

StartChar: q
Encoding: 113 113 16
Width: 617
VWidth: 975
Flags: W
LayerCount: 2
Fore
SplineSet
308 0 m 2
 70.1969769884 0 70.5000067436 250.011316818 70.5000067436 250.011316818 c 2
 70.5000067436 250.344610194 70.7339374947 500 308 500 c 2
 427 500 l 1
 539 500 l 1
 546.5 500 l 1
 546.5 492.5 l 1
 546.5 137.74 l 1
 546.5 -242.5 l 1
 546.5 -250 l 1
 539 -250 l 1
 449 -250 l 1
 441.5 -250 l 1
 441.5 -242.5 l 1
 441.5 -117.5 l 1
 441.5 -12.5 l 1
 441.5 0 l 1
 432 0 l 1
 308 0 l 2
441.5 410 m 1
 428 410 l 1
 308 410 l 2
 176.525187652 410 175.506984613 252.288622377 175.500015029 249.998811888 c 0
 175.510513026 246.549764894 177.018582638 90 308 90 c 2
 432 90 l 1
 441.5 90 l 1
 441.5 410 l 1
EndSplineSet
EndChar

StartChar: r
Encoding: 114 114 17
Width: 617
Flags: W
LayerCount: 2
Fore
SplineSet
308 410 m 2
 170.174735162 410 175.5 416.328778213 175.5 257.5 c 2
 175.5 7.5 l 1
 175.5 0 l 1
 168 0 l 1
 78 0 l 1
 70.5 0 l 1
 70.5 7.5 l 1
 70.5 250.110837438 l 2
 70.5 494.034089591 76.0162941975 500 308 500 c 0
 396.576486261 500 546.5 500 546.5 347.5 c 2
 546.5 340 l 1
 539 340 l 1
 449 340 l 1
 441.5 340 l 1
 441.5 347.5 l 2
 441.5 408.30937505 358.877663181 410 310 410 c 2
 308 410 l 2
EndSplineSet
EndChar

StartChar: s
Encoding: 115 115 18
Width: 617
Flags: W
LayerCount: 2
Fore
SplineSet
441.5 144.2875 m 0
 441.5 195.680582132 403.608311602 197.5 317 197.5 c 2
 304 197.5 l 2
 200.470651648 197.5 70.5 198.556612341 70.5 348.262096774 c 0
 70.5 499.126480148 169.182761656 500 308 500 c 0
 446.795392986 500 546.5 499.237694239 546.5 359.5 c 2
 546.5 352 l 1
 539 352 l 1
 449 352 l 1
 441.5 352 l 1
 441.5 359.5 l 2
 441.5 409.129469929 400.832239518 410 308 410 c 0
 215.210058832 410 175.5 409.130357159 175.5 355.7125 c 0
 175.5 304.250018661 212.439758486 302.5 299 302.5 c 2
 312 302.5 l 2
 415.505246202 302.5 546.5 301.47444013 546.5 151.737903226 c 0
 546.5 0.837012654132 446.791201941 0 308 0 c 0
 169.179171221 0 70.5 0.797736185758 70.5 140.5 c 2
 70.5 148 l 1
 78 148 l 1
 168 148 l 1
 175.5 148 l 1
 175.5 140.5 l 2
 175.5 90.8066050751 215.208728867 90 308 90 c 0
 400.828919302 90 441.5 90.9416622082 441.5 144.2875 c 0
EndSplineSet
EndChar

StartChar: t
Encoding: 116 116 19
Width: 617
Flags: W
LayerCount: 2
Fore
SplineSet
199.5 410 m 1
 199.5 250 l 1
 199.5 202.786885246 l 2
 199.5 108.154230785 258.890154901 90 333 90 c 4
 411.465123075 90 450.44629198 112.110951492 495.70592401 134.237882707 c 2
 502.210463985 137.417880028 l 1
 505.617647059 131.029411765 l 1
 545.617647059 60.8823529412 l 1
 549.241159964 55.0588500571 l 1
 542.354101966 52.1072537721 l 2
 480.086384298 25.4210890572 409.95308782 0 333 0 c 0
 111.167999127 0 94.5 164.930578691 94.5 208.292079208 c 2
 94.5 252.400990099 l 1
 94.5 742.5 l 1
 94.5 750 l 1
 102 750 l 1
 192 750 l 1
 199.5 750 l 1
 199.5 742.5 l 1
 199.5 500 l 1
 474 500 l 1
 481.5 500 l 1
 481.5 492.5 l 1
 481.5 416.346153846 l 1
 481.5 410 l 1
 474 410 l 1
 199.5 410 l 1
EndSplineSet
EndChar

StartChar: u
Encoding: 117 117 20
Width: 617
Flags: W
LayerCount: 2
Fore
SplineSet
441.5 500 m 1
 449 500 l 1
 539 500 l 1
 546.5 500 l 1
 546.5 492.5 l 1
 546.5 230.480295567 l 2
 546.5 5.60978929162 539.641302603 0 308 0 c 0
 70.6131828474 0 70.5 230.480295567 70.5 230.480295567 c 1
 70.5 492.5 l 1
 70.5 500 l 1
 78 500 l 1
 168 500 l 1
 175.5 500 l 1
 175.5 492.5 l 1
 175.499985806 222.514591412 l 2
 175.500756924 222.11823698 175.387550348 90 308 90 c 0
 446.37636554 90 441.5 84.252625505 441.5 222.5 c 2
 441.5 492.5 l 1
 441.5 500 l 1
EndSplineSet
EndChar

StartChar: v
Encoding: 118 118 21
Width: 617
Flags: W
LayerCount: 2
Fore
SplineSet
361.241552761 -1.11910480882e-13 m 1
 356 0 l 1
 260 0 l 1
 254.74859035 0 l 1
 252.952372768 4.93466368749 l 1
 70.9523727678 490.23066507 l 1
 67.2885903501 500 l 1
 78 500 l 1
 175 500 l 1
 180.273879933 500 l 1
 182.05787063 495.037018362 l 1
 308.026422611 144.598189543 l 1
 434.948216523 495.053889151 l 1
 436.739510723 500 l 1
 442 500 l 1
 539 500 l 1
 549.731552761 500 l 1
 546.043088762 490.218589335 l 1
 363.043088762 4.92222951294 l 1
 361.241552761 -1.11910480882e-13 l 1
EndSplineSet
EndChar

StartChar: w
Encoding: 119 119 22
Width: 617
Flags: W
LayerCount: 2
Fore
SplineSet
176.452878843 493.339402737 m 1
 205.762706126 233.103663528 l 1
 256.917348294 379.966991044 l 1
 258.670418829 385 l 1
 264 385 l 1
 354 385 l 1
 359.357956353 385 l 1
 361.094943908 379.931413362 l 1
 411.280587626 233.488059564 l 1
 440.547121157 493.339402737 l 1
 441.297290815 500 l 1
 448 500 l 1
 539 500 l 1
 547.403577681 500 l 1
 546.451734933 491.896873006 l 1
 489.451734933 6.65050221759 l 1
 488.693577681 4.07673894642e-13 l 1
 482 0 l 1
 392 0 l 1
 386.693636892 0 l 1
 384.927572498 5.00384911699 l 1
 308.08532263 222.723557076 l 1
 233.090930362 5.0569063459 l 1
 231.348634898 -5.3290705182e-15 l 1
 226 0 l 1
 135 0 l 1
 128.306422319 0 l 1
 127.548265067 6.65050221759 l 1
 70.5482650666 491.896873006 l 1
 69.5964223194 500 l 1
 78 500 l 1
 169 500 l 1
 175.702709185 500 l 1
 176.452878843 493.339402737 l 1
EndSplineSet
EndChar

StartChar: x
Encoding: 120 120 23
Width: 617
Flags: W
LayerCount: 2
Fore
SplineSet
71.8673071768 11.4732191723 m 1
 244.827846491 250 l 1
 71.8673071768 488.526780828 l 1
 63.5478464906 500 l 1
 78 500 l 1
 188 500 l 1
 191.912367485 500 l 1
 194.150952157 496.79136197 l 1
 308.050696381 333.535061917 l 1
 423.88261362 496.839076386 l 1
 426.124664091 500 l 1
 430 500 l 1
 539 500 l 1
 553.404916712 500 l 1
 545.144239404 488.54274992 l 1
 373.154916712 250 l 1
 545.144239404 11.4572500803 l 1
 553.404916712 -1.86517468137e-14 l 1
 539 0 l 1
 430 0 l 1
 426.124664091 0 l 1
 423.88261362 3.16092361435 l 1
 308.050696381 166.464938083 l 1
 194.150952157 3.20863802982 l 1
 191.912367485 1.7763568394e-14 l 1
 188 0 l 1
 78 0 l 1
 63.5478464906 0 l 1
 71.8673071768 11.4732191723 l 1
EndSplineSet
EndChar

StartChar: y
Encoding: 121 121 24
Width: 617
Flags: W
LayerCount: 2
Fore
SplineSet
162.943344411 -239.959603988 m 1
 252.023724307 7.48589572296 l 1
 70.9523727678 490.232153045 l 1
 67.2885903501 500 l 1
 78 500 l 1
 175 500 l 1
 180.273879933 500 l 1
 182.05787063 495.037018362 l 1
 308.026422611 144.598189543 l 1
 434.948216523 495.053889151 l 1
 436.739510723 500 l 1
 442 500 l 1
 539 500 l 1
 549.731552761 500 l 1
 546.043088762 490.218582125 l 1
 363.038534253 4.90981939484 l 1
 271.038534253 -245.090180605 l 1
 269.231720716 -250 l 1
 264 -250 l 1
 170 -250 l 1
 159.328801847 -250 l 1
 162.943344411 -239.959603988 l 1
EndSplineSet
EndChar

StartChar: z
Encoding: 122 122 25
Width: 617
Flags: W
LayerCount: 2
Fore
SplineSet
545.127258974 488.174876018 m 2
 452.024610071 356.279456738 358.117902328 221.36200358 265.47092368 90 c 1
 539 90 l 1
 546.5 90 l 1
 546.5 83.6538461538 l 1
 546.5 7.5 l 1
 546.5 0 l 1
 539 0 l 1
 78 0 l 1
 63.5255946853 0 l 1
 71.8727410255 11.825123982 l 2
 164.975389929 143.720543262 258.882097672 278.63799642 351.52907632 410 c 1
 78 410 l 1
 70.5 410 l 1
 70.5 416.346153846 l 1
 70.5 492.5 l 1
 70.5 500 l 1
 78 500 l 1
 539 500 l 1
 553.474405315 500 l 1
 545.127258974 488.174876018 l 2
EndSplineSet
EndChar

StartChar: braceleft
Encoding: 123 123 26
Width: 617
Flags: W
LayerCount: 2
Fore
SplineSet
109.5 277.5 m 1
 109.5 285 l 1
 109.5 375 l 1
 109.5 382.5 l 1
 117 382.5 l 2
 261.396892174 382.5 256.5 377.906698807 256.5 515.29 c 0
 256.5 747.05278706 353.308218628 750 500 750 c 2
 507.5 750 l 1
 507.5 742.5 l 1
 507.5 666.346153846 l 1
 507.5 660 l 1
 500 660 l 2
 355.562184936 660 361.5 665.727276531 361.5 525.5 c 0
 361.5 430.642649639 361.823349196 373.674884577 344.437995258 337.5 c 1
 362.339775212 300.250552801 361.5 243.998388882 361.5 149.5 c 0
 361.5 9.27260897422 355.562286051 15 500 15 c 2
 507.5 15 l 1
 507.5 7.5 l 1
 507.5 -82.5 l 1
 507.5 -90 l 1
 500 -90 l 2
 353.308391198 -90 256.5 -87.0533851422 256.5 144.71 c 0
 256.5 282.093593986 261.396627346 277.5 117 277.5 c 2
 109.5 277.5 l 1
EndSplineSet
EndChar

StartChar: braceright
Encoding: 125 125 27
Width: 617
Flags: W
LayerCount: 2
Fore
SplineSet
507.5 277.5 m 1
 500 277.5 l 2
 355.645419418 277.5 361.5 282.174593508 361.5 144.71 c 0
 361.5 -87.0891384487 263.666794898 -90 117 -90 c 2
 109.5 -90 l 1
 109.5 -82.5 l 1
 109.5 7.5 l 1
 109.5 15 l 1
 117 15 l 2
 261.48007902 15 256.5 9.35553014079 256.5 149.5 c 2
 256.5 177.5 l 2
 256.5 255.908166942 257.345470734 305.388722739 272.600931338 337.5 c 1
 256.859383685 370.634443747 256.5 419.486851631 256.5 497.5 c 2
 256.5 525.5 l 2
 256.5 665.644587359 261.479980601 660 117 660 c 2
 109.5 660 l 1
 109.5 666.346153846 l 1
 109.5 742.5 l 1
 109.5 750 l 1
 117 750 l 2
 263.666556939 750 361.5 747.089983915 361.5 515.29 c 0
 361.5 377.825296958 355.645523628 382.5 500 382.5 c 2
 507.5 382.5 l 1
 507.5 375 l 1
 507.5 285 l 1
 507.5 277.5 l 1
EndSplineSet
EndChar

StartChar: bracketleft
Encoding: 91 91 28
Width: 617
Flags: W
LayerCount: 2
Fore
SplineSet
109.5 750 m 1
 117 750 l 1
 500 750 l 1
 507.5 750 l 1
 507.5 742.5 l 1
 507.5 666.346153846 l 1
 507.5 660 l 1
 500 660 l 1
 214.5 660 l 1
 214.5 15 l 1
 500 15 l 1
 507.5 15 l 1
 507.5 7.5 l 1
 507.5 -82.5 l 1
 507.5 -90 l 1
 500 -90 l 1
 117 -90 l 1
 109.5 -90 l 1
 109.5 -82.5 l 1
 109.5 742.5 l 1
 109.5 750 l 1
EndSplineSet
EndChar

StartChar: bracketright
Encoding: 93 93 29
Width: 617
Flags: W
LayerCount: 2
Fore
SplineSet
507.5 750 m 1
 507.5 742.5 l 1
 507.5 -82.5 l 1
 507.5 -90 l 1
 500 -90 l 1
 117 -90 l 1
 109.5 -90 l 1
 109.5 -82.5 l 1
 109.5 7.5 l 1
 109.5 15 l 1
 117 15 l 1
 402.5 15 l 1
 402.5 660 l 1
 117 660 l 1
 109.5 660 l 1
 109.5 666.346153846 l 1
 109.5 742.5 l 1
 109.5 750 l 1
 117 750 l 1
 500 750 l 1
 507.5 750 l 1
EndSplineSet
EndChar

StartChar: quotesingle
Encoding: 39 39 31
Width: 617
Flags: W
LayerCount: 2
Fore
SplineSet
308 750 m 0
 362.782416432 750 361.5 668.221895894 361.5 668.221895894 c 1
 361.5 587.530104686 365.229104661 410 308 410 c 0
 252.832697986 410 256.5 574.153694721 256.5 656.61971831 c 2
 256.5 668.112676056 l 2
 256.5 671.206965434 255.287715657 750 308 750 c 0
EndSplineSet
EndChar

StartChar: parenleft
Encoding: 40 40 32
Width: 617
Flags: W
LayerCount: 2
Fore
SplineSet
507.5 15 m 1
 507.5 7.5 l 1
 507.5 -82.5 l 1
 507.5 -90 l 1
 500 -90 l 2
 109.152318435 -90 109.500002365 330.006792522 109.500002365 330.006792522 c 2
 109.500185402 330.298645827 109.679364178 750 500 750 c 2
 507.5 750 l 1
 507.5 742.5 l 1
 507.5 666.346153846 l 1
 507.5 660 l 1
 500 660 l 2
 215.95105757 660 215.5 342.478772187 215.5 337.5 c 0
 215.5 332.521211903 215.951056966 15 500 15 c 2
 507.5 15 l 1
EndSplineSet
EndChar

StartChar: parenright
Encoding: 41 41 33
Width: 617
Flags: W
LayerCount: 2
Fore
SplineSet
109.5 15 m 1
 117 15 l 2
 401.04894243 15 401.5 332.521227813 401.5 337.5 c 0
 401.5 342.478788097 401.048943034 660 117 660 c 2
 109.5 660 l 1
 109.5 666.346153846 l 1
 109.5 742.5 l 1
 109.5 750 l 1
 117 750 l 2
 507.847681565 750 507.499997635 329.993207478 507.499997635 329.993207478 c 2
 507.499814598 329.701354173 507.320635822 -90 117 -90 c 2
 109.5 -90 l 1
 109.5 -82.5 l 1
 109.5 7.5 l 1
 109.5 15 l 1
EndSplineSet
EndChar

StartChar: asterisk
Encoding: 42 42 34
Width: 617
Flags: W
LayerCount: 2
Fore
SplineSet
71.919905787 438 m 1
 123.919905787 510 l 1
 128.229395719 514.19669391 l 1
 134.276245009 510 l 1
 256.5 425.173065566 l 1
 256.5 580 l 1
 256.5 580 l 1
 279 580 l 1
 339 580 l 1
 361.5 580 l 1
 361.5 580 l 1
 361.5 425.173065566 l 1
 483.723754991 510 l 1
 489.826425216 514.235435306 l 1
 494.120183608 510 l 1
 545.120183608 438 l 1
 549.462402997 430.077679003 l 1
 543.325123982 425.745482051 l 1
 399.005407529 330 l 1
 543.325123982 228.127258974 l 1
 549.462402997 223.795062023 l 1
 545.120183608 217.664869944 l 1
 494.120183608 145.664869944 l 1
 489.826425216 139.603093391 l 1
 483.723754991 143.838528697 l 1
 361.5 228.665463131 l 1
 361.5 80 l 1
 361.5 80 l 1
 369 80 l 1
 249 80 l 1
 256.5 80 l 1
 256.5 80 l 1
 256.5 228.665463131 l 1
 134.276245009 143.838528697 l 1
 128.229395719 139.641834786 l 1
 123.919905787 145.608820846 l 1
 71.919905787 217.608820846 l 1
 67.4946539789 223.73609258 l 1
 73.6559465086 228.113853062 l 1
 217.051264421 330 l 1
 73.6559465086 425.772293876 l 1
 67.4946539789 430.150054358 l 1
 71.919905787 438 l 1
EndSplineSet
EndChar

StartChar: plus
Encoding: 43 43 35
Width: 617
Flags: W
LayerCount: 2
Fore
SplineSet
546.5 382.5 m 1
 546.5 375 l 1
 546.5 285 l 1
 546.5 277.5 l 1
 539 277.5 l 1
 361.5 277.5 l 1
 361.5 80 l 1
 361.5 72.5 l 1
 354 72.5 l 1
 264 72.5 l 1
 256.5 72.5 l 1
 256.5 80 l 1
 256.5 277.5 l 1
 78 277.5 l 1
 70.5 277.5 l 1
 70.5 285 l 1
 70.5 375 l 1
 70.5 382.5 l 1
 78 382.5 l 1
 256.5 382.5 l 1
 256.5 572.5 l 1
 256.5 580 l 1
 264 580 l 1
 354 580 l 1
 361.5 580 l 1
 361.5 572.5 l 1
 361.5 382.5 l 1
 539 382.5 l 1
 546.5 382.5 l 1
EndSplineSet
EndChar

StartChar: hyphen
Encoding: 45 45 36
Width: 617
Flags: W
LayerCount: 2
Fore
SplineSet
70.5 390 m 1
 78 390 l 1
 539 390 l 1
 546.5 390 l 1
 546.5 382.5 l 1
 546.5 292.5 l 1
 546.5 285 l 1
 539 285 l 1
 78 285 l 1
 70.5 285 l 1
 70.5 292.5 l 1
 70.5 382.5 l 1
 70.5 390 l 1
EndSplineSet
EndChar

StartChar: period
Encoding: 46 46 37
Width: 617
Flags: W
LayerCount: 2
Fore
SplineSet
211.5 82.5 m 0
 211.5 131.809763075 258.515456595 180 308 180 c 0
 357.420582584 180 405.5 131.899386655 405.5 82.5 c 0
 405.5 33.0794174157 357.399386655 -15 308 -15 c 0
 258.499072603 -15 211.5 33.2084805127 211.5 82.5 c 0
EndSplineSet
EndChar

StartChar: B
Encoding: 66 66 39
Width: 617
Flags: W
LayerCount: 2
Fore
SplineSet
175.5 378.5 m 1
 175.5 90 l 1
 308 90 l 2
 438.388614199 90 441.422442566 229.256934107 441.499536919 234.25 c 0
 441.405090286 240.366897591 437.881359123 378.5 308 378.5 c 2
 175.5 378.5 l 1
70.5 7.5 m 1
 70.5 385.78 l 1
 70.5 451.44 l 1
 70.5 742.5 l 1
 70.5 750 l 1
 78 750 l 1
 308 750 l 2
 501.599415917 750 501.499984883 552.436217392 501.499984883 552.436217392 c 1
 501.499984883 552.436217392 502.091208524 465.651476971 446.344147819 424.279000968 c 1
 547.126985913 360.851236469 546.493303764 241.414777718 546.500191417 240.701670512 c 0
 546.496521703 240.026083994 544.984007486 0 308 0 c 2
 78 0 l 1
 70.5 0 l 1
 70.5 7.5 l 1
175.5 460.5 m 1
 308 460.5 l 2
 395.30292717 460.5 396.477780981 556.759525461 396.499990423 559.730689068 c 0
 396.469388203 563.887344575 394.776288279 660 308 660 c 2
 175.5 660 l 1
 175.5 460.5 l 1
EndSplineSet
EndChar

StartChar: C
Encoding: 67 67 40
Width: 617
Flags: W
LayerCount: 2
Fore
SplineSet
546.5 160 m 1
 546.5 152.5 l 2
 546.5 -0.0487173199116 396.574837695 0 308 0 c 0
 162.500377028 0 70.5 94.3043188155 70.5 375 c 0
 70.5 655.695755892 162.499647613 750 308 750 c 0
 396.576486261 750 546.5 750 546.5 597.5 c 2
 546.5 590 l 1
 539 590 l 1
 449 590 l 1
 441.5 590 l 1
 441.5 597.5 l 2
 441.5 658.30937505 358.877663181 660 310 660 c 2
 308 660 l 2
 224.739762975 660 175.5 595.878388506 175.5 375 c 0
 175.5 154.121600263 224.73973441 90 308 90 c 2
 310 90 l 2
 358.876341265 90 441.5 91.6907074296 441.5 152.5 c 2
 441.5 160 l 1
 449 160 l 1
 539 160 l 1
 546.5 160 l 1
EndSplineSet
EndChar

StartChar: D
Encoding: 68 68 41
Width: 617
VWidth: 975
Flags: W
LayerCount: 2
Fore
SplineSet
175.5 90 m 1
 190 90 l 1
 308 90 l 2
 436.906537699 90 441.465414438 368.446489336 441.499922195 375 c 0
 441.457596961 383.038159813 436.5595553 660 308 660 c 2
 184 660 l 1
 175.5 660 l 1
 175.5 90 l 1
78 750 m 1
 168 750 l 1
 186 750 l 1
 308 750 l 2
 547.599514065 750 546.500038815 375 546.500038815 375 c 1
 546.500038815 375 547.601639751 5.68434188608e-14 308 0 c 2
 190 0 l 1
 78 0 l 1
 70.5 0 l 1
 70.5 7.5 l 1
 70.5 607.26 l 1
 70.5 742.5 l 1
 70.5 750 l 1
 78 750 l 1
EndSplineSet
EndChar

StartChar: E
Encoding: 69 69 42
Width: 617
Flags: W
LayerCount: 2
Fore
SplineSet
70.5 750 m 1
 78 750 l 1
 539 750 l 1
 546.5 750 l 1
 546.5 742.5 l 1
 546.5 666.346153846 l 1
 546.5 660 l 1
 539 660 l 1
 175.5 660 l 1
 175.5 427.5 l 1
 354 427.5 l 1
 361.5 427.5 l 1
 361.5 420 l 1
 361.5 330 l 1
 361.5 322.5 l 1
 354 322.5 l 1
 175.5 322.5 l 1
 175.5 90 l 1
 539 90 l 1
 546.5 90 l 1
 546.5 83.6538461538 l 1
 546.5 7.5 l 1
 546.5 0 l 1
 539 0 l 1
 78 0 l 1
 70.5 0 l 1
 70.5 7.5 l 1
 70.5 742.5 l 1
 70.5 750 l 1
EndSplineSet
EndChar

StartChar: F
Encoding: 70 70 43
Width: 617
Flags: W
LayerCount: 2
Fore
SplineSet
70.5 750 m 1
 78 750 l 1
 539 750 l 1
 546.5 750 l 1
 546.5 742.5 l 1
 546.5 666.346153846 l 1
 546.5 660 l 1
 539 660 l 1
 175.5 660 l 1
 175.5 427.5 l 1
 354 427.5 l 1
 361.5 427.5 l 1
 361.5 420 l 1
 361.5 330 l 1
 361.5 322.5 l 1
 354 322.5 l 1
 175.5 322.5 l 1
 175.5 7.5 l 1
 175.5 0 l 1
 168 0 l 1
 78 0 l 1
 70.5 0 l 1
 70.5 7.5 l 1
 70.5 742.5 l 1
 70.5 750 l 1
EndSplineSet
EndChar

StartChar: L
Encoding: 76 76 44
Width: 617
Flags: W
LayerCount: 2
Fore
SplineSet
70.5 750 m 1
 78 750 l 1
 168 750 l 1
 175.5 750 l 1
 175.5 742.5 l 1
 175.5 102.990806333 l 1
 539.060644918 100.109759713 l 1
 546.5 100.050806333 l 1
 546.5 92.76 l 1
 546.5 7.5 l 1
 546.5 0 l 1
 539 0 l 1
 78 0 l 1
 70.5 0 l 1
 70.5 7.5 l 1
 70.5 742.5 l 1
 70.5 750 l 1
EndSplineSet
EndChar

StartChar: T
Encoding: 84 84 45
Width: 617
Flags: W
LayerCount: 2
Fore
SplineSet
70.5 750 m 1
 78 750 l 1
 539 750 l 1
 546.5 750 l 1
 546.5 742.5 l 1
 546.5 662.5 l 1
 546.5 655 l 1
 539 655 l 1
 361.5 655 l 1
 361.5 7.5 l 1
 361.5 0 l 1
 354 0 l 1
 264 0 l 1
 256.5 0 l 1
 256.5 7.5 l 1
 256.5 655 l 1
 78 655 l 1
 70.5 655 l 1
 70.5 662.5 l 1
 70.5 742.5 l 1
 70.5 750 l 1
EndSplineSet
EndChar

StartChar: underscore
Encoding: 95 95 46
Width: 617
Flags: W
LayerCount: 2
Fore
SplineSet
70.5 0 m 1
 78 0 l 1
 539 0 l 1
 546.5 0 l 1
 546.5 -7.5 l 1
 546.5 -82.5 l 1
 546.5 -90 l 1
 539 -90 l 1
 78 -90 l 1
 70.5 -90 l 1
 70.5 -82.5 l 1
 70.5 -7.5 l 1
 70.5 0 l 1
EndSplineSet
EndChar

StartChar: exclam
Encoding: 33 33 48
Width: 617
VWidth: 0
Flags: W
LayerCount: 2
Fore
SplineSet
211.5 7.5 m 0
 211.5 49.2236456791 258.515456595 90 308 90 c 0
 357.420582584 90 405.5 49.2994810157 405.5 7.5 c 0
 405.5 -41.9205825843 357.399386655 -90 308 -90 c 0
 258.499072603 -90 211.5 -41.7915194873 211.5 7.5 c 0
256.5 750 m 1
 264 750 l 1
 354 750 l 1
 361.5 750 l 1
 361.5 742.5 l 1
 361.5 242.5 l 1
 361.5 235 l 1
 354 235 l 1
 264 235 l 1
 256.5 235 l 1
 256.5 242.5 l 1
 256.5 742.5 l 1
 256.5 750 l 1
EndSplineSet
EndChar

StartChar: numbersign
Encoding: 35 35 49
Width: 617
VWidth: 0
Flags: W
LayerCount: 2
Fore
SplineSet
160.5 750 m 1
 168 750 l 1
 258 750 l 1
 265.5 750 l 1
 265.5 742.5 l 1
 265.5 597.5 l 1
 352.5 597.5 l 1
 352.5 742.5 l 1
 352.5 750 l 1
 360 750 l 1
 449 750 l 1
 456.5 750 l 1
 456.5 742.5 l 1
 456.5 597.5 l 1
 539 597.5 l 1
 546.5 597.5 l 1
 546.5 590 l 1
 546.5 500 l 1
 546.5 492.5 l 1
 539 492.5 l 1
 456.5 492.5 l 1
 456.5 257.5 l 1
 539 257.5 l 1
 546.5 257.5 l 1
 546.5 250 l 1
 546.5 160 l 1
 546.5 152.5 l 1
 539 152.5 l 1
 456.5 152.5 l 1
 456.5 7.5 l 1
 456.5 0 l 1
 449 0 l 1
 360 0 l 1
 352.5 0 l 1
 352.5 7.5 l 1
 352.5 152.5 l 1
 265.5 152.5 l 1
 265.5 7.5 l 1
 265.5 0 l 1
 258 0 l 1
 168 0 l 1
 160.5 0 l 1
 160.5 7.5 l 1
 160.5 152.5 l 1
 78 152.5 l 1
 70.5 152.5 l 1
 70.5 160 l 1
 70.5 250 l 1
 70.5 257.5 l 1
 78 257.5 l 1
 160.5 257.5 l 1
 160.5 492.5 l 1
 78 492.5 l 1
 70.5 492.5 l 1
 70.5 500 l 1
 70.5 590 l 1
 70.5 597.5 l 1
 78 597.5 l 1
 160.5 597.5 l 1
 160.5 742.5 l 1
 160.5 750 l 1
352.5 257.5 m 1
 352.5 492.5 l 1
 265.5 492.5 l 1
 265.5 257.5 l 1
 352.5 257.5 l 1
EndSplineSet
EndChar

StartChar: dollar
Encoding: 36 36 50
Width: 617
Flags: W
LayerCount: 2
Fore
SplineSet
256.5 750 m 1
 264 750 l 1
 354 750 l 1
 361.5 750 l 1
 361.5 742.5 l 1
 361.5 661.524957949 l 1
 472.65914441 659.667942632 546.5 654.976148678 546.5 490.64 c 2
 546.5 483.29 l 1
 539 483.29 l 1
 449 483.29 l 1
 441.5 483.29 l 1
 441.5 490.64 l 2
 441.5 530.40526664 415.80504483 554.252058982 361.5 558.36364028 c 1
 361.5 426.227764574 l 1
 453.737399146 423.529544557 546.5 420.006005303 546.5 259.36 c 0
 546.5 94.5590423642 471.489960338 90.312525077 361.5 88.4750420511 c 1
 361.5 7.5 l 1
 361.5 0 l 1
 354 0 l 1
 264 0 l 1
 256.5 0 l 1
 256.5 7.5 l 1
 256.5 88.4750190064 l 1
 145.325254459 90.3315137108 70.5 94.9768719025 70.5 259.36 c 2
 70.5 266.71 l 1
 78 266.71 l 1
 168 266.71 l 1
 175.5 266.71 l 1
 175.5 259.36 l 2
 175.5 191.685829904 200.331659829 193.153080724 256.5 191.48076477 c 1
 256.5 323.772177274 l 1
 164.271608584 326.468726753 70.5 329.938259691 70.5 490.64 c 0
 70.5 655.487753 146.49983189 659.688100427 256.5 661.524980994 c 1
 256.5 742.5 l 1
 256.5 750 l 1
256.5 427.735165978 m 1
 256.5 562.264525745 l 1
 199.256223911 560.52540818 175.5 561.69948599 175.5 493 c 0
 175.5 428.119916859 199.875669492 429.449029532 256.5 427.735165978 c 1
361.5 322.264676072 m 1
 361.5 187.735632153 l 1
 418.632043938 189.474038873 441.5 188.217964953 441.5 257 c 0
 441.5 321.977770203 417.975566442 320.552844132 361.5 322.264676072 c 1
EndSplineSet
EndChar

StartChar: percent
Encoding: 37 37 51
Width: 617
VWidth: 0
Flags: W
LayerCount: 2
Fore
SplineSet
307.5 591.25 m 2
 307.5 587.835557888 307.454629941 432.5 150 432.5 c 0
 -7.55260560951 432.5 -7.50001459114 591.25 -7.50001459114 591.25 c 2
 -7.49895353711 591.849827444 -7.01679607006 750 150 750 c 0
 307.552621417 750 307.5 591.25 307.5 591.25 c 2
150 656 m 0
 90.939119023 656 87.5 605.291287224 87.5 593.140510949 c 2
 87.5 588.414233577 l 2
 87.5 576.336266086 90.8577119422 526.5 150 526.5 c 0
 209.14308297 526.5 212.5 576.335834804 212.5 588.414233577 c 2
 212.5 593.140510949 l 2
 212.5 605.291344415 209.060989064 656 150 656 c 0
624.5 158.791275771 m 2
 624.5 155.188693562 623.385419665 0 465 0 c 0
 308.548656059 0 307.5 155.276567075 307.5 158.761503067 c 0
 307.5 162.210340304 308.514310673 318.5 465 318.5 c 0
 623.512486213 318.5 624.5 158.791275771 624.5 158.791275771 c 2
465 223.5 m 0
 405.85691703 223.5 402.5 173.685387588 402.5 161.612132353 c 2
 402.5 156.887867647 l 2
 402.5 144.815043511 405.857711942 95 465 95 c 0
 524.14308297 95 527.5 144.814612412 527.5 156.887867647 c 2
 527.5 161.612132353 l 2
 527.5 173.684956489 524.142288058 223.5 465 223.5 c 0
99.9220370126 1.24344978758e-14 m 1
 96 0 l 1
 0 0 l 1
 -14.3420370126 0 l 1
 -6.15963337886 11.5469567345 l 1
 514.840366621 746.778891987 l 1
 517.077962987 750 l 1
 521 750 l 1
 617 750 l 1
 631.342037013 750 l 1
 623.159633379 738.453043266 l 1
 102.159633379 3.22110801282 l 1
 99.9220370126 1.24344978758e-14 l 1
EndSplineSet
EndChar

StartChar: ampersand
Encoding: 38 38 52
Width: 617
VWidth: 975
Flags: W
LayerCount: 2
Fore
SplineSet
451.511945838 492.5 m 1
 444 492.5 l 1
 354 492.5 l 1
 346.5 492.5 l 1
 346.5 500 l 2
 346.5 577.068953901 274.573219088 576.5 264 576.5 c 0
 254.081157502 576.5 175.5 576.299847727 175.5 500 c 0
 175.5 452.585094533 330.176146256 346.075082619 440.386298813 223.122688665 c 1
 441.50573556 237.844561211 441.5 251.936319022 441.5 265.510152284 c 2
 441.5 314.748730964 l 1
 441.5 322.134517766 l 1
 449 322.134517766 l 1
 539 322.134517766 l 1
 546.5 322.134517766 l 1
 546.5 314.748730964 l 2
 546.5 235.903278037 532.586231187 173.155178871 511.389066971 126.024774133 c 1
 533.069558027 87.2236268486 546.5 48.4772303767 546.5 7.5 c 2
 546.5 0 l 1
 539 0 l 1
 449 0 l 1
 441.5 0 l 1
 441.5 7.5 l 2
 441.5 14.8622546484 440.465928491 24.5086795149 439.207660706 31.8910455879 c 1
 410.870698052 10.1353240354 382.768983777 0 354 0 c 0
 123.581249275 0 70.5 55.5668799228 70.5 253.6375 c 0
 70.5 320.602601306 95.9089937539 361.633443268 122.645893066 388.032808279 c 1
 91.0388099904 424.478040162 70.5000098372 461.520353282 70.5000098372 500.012147319 c 1
 70.5000098372 500.012147319 70.9569553843 681.5 264 681.5 c 0
 451.213342375 681.5 451.499087787 500.579142309 451.501484919 499.072944284 c 2
 451.511945838 492.5 l 1
400.162665012 107.561054448 m 1
 348.831354038 180.302857346 262.66921631 246.03831825 191.809606317 310.510815627 c 1
 179.967153566 299.266179 175.5 286.116736872 175.5 242.5 c 0
 175.5 105.34250783 187.766351577 90 354 90 c 0
 373.481325357 90 388.244708698 97.3023463785 400.162665012 107.561054448 c 1
EndSplineSet
EndChar

StartChar: comma
Encoding: 44 44 53
Width: 617
Flags: W
LayerCount: 2
Fore
SplineSet
202.5 -149.5 m 0
 202.5 -129.459136346 265.930499332 -100.871373948 290.976594986 2.59603418707 c 1
 247.913117525 11.5476460172 211.5 45.8193880263 211.5 82.5 c 0
 211.5 131.809763075 258.515456595 180 308 180 c 0
 357.420582584 180 405.5 131.899386655 405.5 82.5 c 0
 405.5 -19.9556260202 361.205515854 -175 219 -175 c 0
 213.93052397 -175 202.5 -174.672166443 202.5 -149.5 c 0
EndSplineSet
EndChar

StartChar: slash
Encoding: 47 47 54
Width: 617
VWidth: 0
Flags: W
LayerCount: 2
Fore
SplineSet
218.363180176 -90 m 1
 213 -90 l 1
 117 -90 l 1
 106.511819824 -90 l 1
 109.902817329 -80.0751292541 l 1
 396.902817329 744.924870746 l 1
 398.636819824 750 l 1
 404 750 l 1
 500 750 l 1
 510.488180176 750 l 1
 507.097182671 740.250289514 l 1
 220.097182671 -84.9248707459 l 1
 218.363180176 -90 l 1
EndSplineSet
EndChar

StartChar: zero
Encoding: 48 48 55
Width: 617
Flags: W
LayerCount: 2
Fore
SplineSet
308 750 m 0
 450.966301707 750 546.5 744.687974988 546.5 375 c 0
 546.5 5.3139851494 450.972556988 0 308 0 c 0
 165.010089023 0 70.5 5.34628470159 70.5 375 c 0
 70.5 744.652009486 165.004461767 750 308 750 c 0
441.5 367.5 m 0
 441.5 407.682819376 440.136838055 442.694585414 438.246970501 470.002193295 c 1
 210.932622517 122.455462907 l 1
 231.030568511 93.0418174601 254.290813867 90 308 90 c 0
 394.001442729 90 441.5 83.3760107697 441.5 367.5 c 0
178.756606182 279.053009967 m 1
 406.073027432 627.54223428 l 1
 386.101131228 656.931067354 363.669611136 660 308 660 c 0
 222.034572027 660 175.5 666.677963139 175.5 382.5 c 0
 175.5 342.216788277 176.78163953 308.094994335 178.756606182 279.053009967 c 1
EndSplineSet
EndChar

StartChar: one
Encoding: 49 49 56
Width: 617
VWidth: 0
Flags: W
LayerCount: 2
Fore
SplineSet
191.826552701 388.275034521 m 1
 188 388.275034521 l 1
 78 388.275034521 l 1
 63.3877724042 388.275034521 l 1
 71.9063176209 399.911267859 l 1
 325.906317621 746.872303176 l 1
 328.150484269 750 l 1
 332 750 l 1
 444 750 l 1
 451.5 750 l 1
 451.5 742.5 l 1
 451.5 7.5 l 1
 451.5 0 l 1
 444 0 l 1
 354 0 l 1
 346.5 0 l 1
 346.5 7.5 l 1
 346.5 597.407088247 l 1
 194.072393342 391.311607856 l 1
 191.826552701 388.275034521 l 1
EndSplineSet
EndChar

StartChar: two
Encoding: 50 50 57
Width: 617
VWidth: 0
Flags: W
LayerCount: 2
Fore
SplineSet
546.5 492.5 m 0
 546.5 353.275628835 304.740624876 143.726147265 240.846538914 90 c 1
 539 90 l 1
 546.5 90 l 1
 546.5 83.6538461538 l 1
 546.5 7.5 l 1
 546.5 0 l 1
 539 0 l 1
 78 0 l 1
 70.5 0 l 1
 70.5 7.5 l 1
 70.5 97.5 l 1
 70.5 101.195189255 l 1
 73.4299484046 103.446816662 l 2
 74.3602232444 104.16172083 441.5 389.84985117 441.5 507.5 c 0
 441.5 579.635409535 441.981318364 660 308 660 c 0
 174.126569097 660 175.5 573.900858169 175.5 500.3515625 c 2
 175.5 492.5 l 1
 168 492.5 l 1
 78 492.5 l 1
 70.5 492.5 l 1
 70.5 499.787735849 l 2
 70.5 616.461572076 72.3587492224 750 308 750 c 0
 543.833461878 750 546.5 602.541684246 546.5 492.5 c 0
EndSplineSet
EndChar

StartChar: three
Encoding: 51 51 58
Width: 617
Flags: W
LayerCount: 2
Fore
SplineSet
459.111382927 397.710407954 m 1
 486.785998627 370.65106025 546.5 336.862411196 546.5 225 c 0
 546.5 103.421671641 452.041212378 0 308 0 c 0
 163.92755785 0 70.5 98.6383346366 70.5 214.5 c 2
 70.5 222 l 1
 78 222 l 1
 168 222 l 1
 175.5 222 l 1
 175.5 214.5 l 2
 175.5 128.563688804 221.036606262 90 308 90 c 0
 395.013451841 90 441.5 129.80119347 441.5 218.25 c 0
 441.5 306.698956974 395.013377923 346.5 308 346.5 c 2
 300.5 346.5 l 1
 300.5 354 l 1
 300.5 444 l 1
 300.5 451.5 l 1
 308 451.5 l 2
 375.05741788 451.5 419.5 487.934285066 419.5 555.75 c 0
 419.5 623.565800774 375.057403367 660 308 660 c 0
 241.002804794 660 197.5 624.96139535 197.5 559.5 c 2
 197.5 552 l 1
 190 552 l 1
 100 552 l 1
 92.5 552 l 1
 92.5 559.5 l 2
 92.5 674.149453529 164.336403706 750 308 750 c 0
 451.663269569 750 523.5 669.781650909 523.5 548.529411765 c 0
 523.5 467.984244306 484.191687521 425.626949201 459.111382927 397.710407954 c 1
EndSplineSet
EndChar

StartChar: four
Encoding: 52 52 59
Width: 617
VWidth: 0
Flags: W
LayerCount: 2
Fore
SplineSet
546.5 750 m 1
 546.5 742.5 l 1
 546.5 7.5 l 1
 546.5 0 l 1
 539 0 l 1
 449 0 l 1
 441.5 0 l 1
 441.5 7.5 l 1
 441.5 277.5 l 1
 78 277.5 l 1
 70.5 277.5 l 1
 70.5 284.882227906 l 1
 70.5 373.468962772 l 1
 70.5 376.378765203 l 1
 72.5170854882 378.5059916 l 1
 422.517085488 747.617386878 l 1
 424.740857736 750 l 1
 428 750 l 1
 539 750 l 1
 546.5 750 l 1
217.338554672 382.5 m 1
 441.5 382.5 l 1
 441.5 621.065393622 l 1
 217.338554672 382.5 l 1
EndSplineSet
EndChar

StartChar: five
Encoding: 53 53 60
Width: 617
Flags: W
LayerCount: 2
Fore
SplineSet
70.5 367.5 m 1
 70.5 374.852941176 l 1
 70.5 742.5 l 1
 70.5 750 l 1
 78 750 l 1
 474 750 l 1
 481.5 750 l 1
 481.5 742.5 l 1
 481.5 666.346153846 l 1
 481.5 660 l 1
 474 660 l 1
 175.5 660 l 1
 175.5 472.5 l 1
 308 472.5 l 2
 451.764480724 472.5 546.5 383.25079715 546.5 235.7578125 c 0
 546.5 113.991680045 452.46841966 0 308 0 c 2
 78 0 l 1
 70.5 0 l 1
 70.5 7.5 l 1
 70.5 83.6538461538 l 1
 70.5 90 l 1
 78 90 l 1
 308 90 l 2
 394.00378519 90 441.5 144.550395072 441.5 228.236111111 c 0
 441.5 312.497614489 403.82067478 367.5 308 367.5 c 2
 78 367.5 l 1
 70.5 367.5 l 1
EndSplineSet
EndChar

StartChar: six
Encoding: 54 54 61
Width: 617
Flags: W
LayerCount: 2
Fore
SplineSet
175.5 228.236111111 m 0
 175.5 139.392239653 221.80582694 90 308 90 c 0
 394.245303978 90 441.5 139.469923296 441.5 228.236111111 c 0
 441.5 317.054238289 394.170607109 367.5 308 367.5 c 0
 221.877173005 367.5 175.5 317.129467302 175.5 228.236111111 c 0
70.5 234.803921569 m 2
 70.5 375 l 2
 70.5 655.695755892 162.499647613 750 308 750 c 0
 451.099728673 750 514.5 675.261895292 514.5 609.5 c 2
 514.5 602 l 1
 507 602 l 1
 417 602 l 1
 409.5 602 l 1
 409.5 609.5 l 2
 409.5 619.909550942 395.750013059 660 308 660 c 0
 233.220825438 660 185.740817529 606.876973643 177.18121215 431.514891882 c 1
 208.558011231 453.63432683 259.859582222 472.5 308 472.5 c 0
 451.883507012 472.5 546.5 379.286627992 546.5 235.7578125 c 0
 546.5 92.2001418583 451.839961477 0 308 0 c 0
 164.130452067 0 70.5 91.8698885341 70.5 234.803921569 c 2
EndSplineSet
EndChar

StartChar: seven
Encoding: 55 55 62
Width: 617
VWidth: 0
Flags: W
LayerCount: 2
Fore
SplineSet
70.5 750 m 1
 78 750 l 1
 539 750 l 1
 550.919254774 750 l 1
 545.761422931 739.466391068 l 2
 425.754393646 494.381410782 304.754393653 249.310786105 184.761422931 4.25451699311 c 2
 182.719254774 4.79616346638e-14 l 1
 178 0 l 1
 78 0 l 1
 66.0611989071 0 l 1
 71.2433769385 10.7554638387 l 1
 384.061198907 660 l 1
 78 660 l 1
 70.5 660 l 1
 70.5 666.346153846 l 1
 70.5 742.5 l 1
 70.5 750 l 1
EndSplineSet
EndChar

StartChar: eight
Encoding: 56 56 63
Width: 617
Flags: W
LayerCount: 2
Fore
SplineSet
419.5 555.75 m 0
 419.5 623.565800774 375.057403367 660 308 660 c 0
 241.002804794 660 197.5 623.653984729 197.5 555.75 c 0
 197.5 487.84611225 241.002777358 451.5 308 451.5 c 0
 375.05741788 451.5 419.5 487.934285066 419.5 555.75 c 0
459.111382927 397.710407954 m 1
 486.785998627 370.65106025 546.5 336.862411196 546.5 225 c 0
 546.5 103.421671641 452.041212378 0 308 0 c 0
 163.92755785 0 70.5 103.466784584 70.5 225 c 0
 70.5 338.025094389 131.175469514 371.69450022 157.879544407 397.710645158 c 1
 130.977829683 427.517502714 92.5 468.420136711 92.5 548.529411765 c 0
 92.5 669.781342701 164.336403706 750 308 750 c 0
 451.663269569 750 523.5 669.781650909 523.5 548.529411765 c 0
 523.5 467.984244306 484.191687521 425.626949201 459.111382927 397.710407954 c 1
441.5 218.25 m 0
 441.5 306.698956974 395.013377923 346.5 308 346.5 c 0
 221.036605505 346.5 175.5 306.774752139 175.5 218.25 c 0
 175.5 129.725245695 221.036606262 90 308 90 c 0
 395.013451841 90 441.5 129.80119347 441.5 218.25 c 0
EndSplineSet
EndChar

StartChar: nine
Encoding: 57 57 64
Width: 617
Flags: W
LayerCount: 2
Fore
SplineSet
441.5 521.763888889 m 0
 441.5 610.531379375 394.24393559 660 308 660 c 0
 221.804381836 660 175.5 610.606484085 175.5 521.763888889 c 0
 175.5 432.869334788 221.878641269 382.5 308 382.5 c 0
 394.172449097 382.5 441.5 432.947384155 441.5 521.763888889 c 0
441.5 7.5 m 1
 441.5 319.925966995 l 1
 410.711991841 297.667287586 358.233597058 277.5 308 277.5 c 0
 164.086006836 277.5 70.5 370.757452973 70.5 514.2421875 c 0
 70.5 657.755982982 164.129485165 750 308 750 c 0
 451.839038761 750 546.5 658.192004026 546.5 515.242574257 c 2
 546.5 7.5 l 1
 546.5 0 l 1
 539 0 l 1
 449 0 l 1
 441.5 0 l 1
 441.5 7.5 l 1
EndSplineSet
EndChar

StartChar: less
Encoding: 60 60 67
Width: 617
Flags: W
LayerCount: 2
Fore
SplineSet
109.5 285 m 1
 109.5 375 l 1
 109.5 372.880024273 l 1
 113.460735138 375 l 1
 496.460735138 580 l 1
 507.5 585.9087449 l 1
 507.5 580 l 1
 507.5 478 l 1
 507.5 466.901812163 l 1
 503.54431857 464.780649657 l 1
 239.870469566 330 l 1
 503.54431857 188.609675172 l 1
 507.5 186.488512666 l 1
 507.5 182 l 1
 507.5 80 l 1
 507.5 74.0912551 l 1
 496.460735138 80 l 1
 113.460735138 278.387617356 l 1
 109.5 280.507593082 l 1
 109.5 285 l 1
EndSplineSet
EndChar

StartChar: greater
Encoding: 62 62 68
Width: 617
Flags: W
LayerCount: 2
Fore
SplineSet
503.539264862 278.387617356 m 1
 120.539264862 80 l 1
 109.5 74.0912551 l 1
 109.5 80 l 1
 109.5 182 l 1
 109.5 186.480809099 l 1
 113.445683537 188.604304239 l 1
 376.174172282 330 l 1
 113.445683537 464.791391522 l 1
 109.5 466.914886662 l 1
 109.5 478 l 1
 109.5 580 l 1
 109.5 585.9087449 l 1
 120.539264862 580 l 1
 503.539264862 375 l 1
 507.5 372.880024273 l 1
 507.5 375 l 1
 507.5 285 l 1
 507.5 280.507593082 l 1
 503.539264862 278.387617356 l 1
EndSplineSet
EndChar

StartChar: question
Encoding: 63 63 69
Width: 617
Flags: W
LayerCount: 2
Fore
SplineSet
211.5 7.5 m 0
 211.5 49.2236456791 258.515456595 90 308 90 c 0
 357.420582584 90 405.5 49.2994810157 405.5 7.5 c 0
 405.5 -41.9205825843 357.399386655 -90 308 -90 c 0
 258.499072603 -90 211.5 -41.7915194873 211.5 7.5 c 0
546.5 559.644736842 m 0
 546.5 394.07956352 472.77374485 370.436389573 361.5 367.655056172 c 1
 361.5 250 l 1
 361.5 242.5 l 1
 354 242.5 l 1
 264 242.5 l 1
 256.5 242.5 l 1
 256.5 250 l 1
 256.5 465 l 1
 256.5 472.5 l 1
 264 472.5 l 1
 308 472.5 l 1
 313 472.5 l 2
 400.588799173 472.5 441.5 471.883350339 441.5 565.729166667 c 0
 441.5 661.514044398 398.773488133 660 308 660 c 0
 217.269229727 660 175.5 661.518142382 175.5 569.5 c 2
 175.5 562 l 1
 168 562 l 1
 78 562 l 1
 70.5 562 l 1
 70.5 569.5 l 2
 70.5 748.11785231 168.153886779 750 308 750 c 0
 447.820712732 750 546.5 748.053176176 546.5 559.644736842 c 0
EndSplineSet
EndChar

StartChar: at
Encoding: 64 64 70
Width: 617
Flags: W
LayerCount: 2
Fore
SplineSet
422 424.5 m 2
 363.571379634 424.5 315.5 422.550782735 315.5 375 c 0
 315.5 326.817071618 350.812819838 325.5 425 325.5 c 2
 441.5 325.5 l 1
 441.5 424.5 l 1
 428 424.5 l 1
 422 424.5 l 2
546.5 160 m 1
 546.5 152.5 l 2
 546.5 -0.0487173199116 396.574837695 0 308 0 c 0
 162.500377028 0 70.5 94.3043188155 70.5 375 c 0
 70.5 655.695755892 162.499647613 750 308 750 c 0
 396.576486261 750 546.5 750 546.5 584.839385475 c 2
 546.5 227.895251397 l 1
 546.5 220.5 l 1
 539 220.5 l 1
 428 220.5 l 2
 287.077149231 220.5 211.5 257.396660433 211.5 375 c 0
 211.5 506.667958017 287.68280288 529.5 428 529.5 c 2
 441.5 529.5 l 1
 441.5 593.68902439 l 2
 441.5 658.206288163 358.877663181 660 310 660 c 2
 308 660 l 2
 224.739762975 660 175.5 595.878388506 175.5 375 c 0
 175.5 154.121600263 224.73973441 90 308 90 c 2
 310 90 l 2
 358.876341265 90 441.5 91.6907074296 441.5 152.5 c 2
 441.5 160 l 1
 449 160 l 1
 539 160 l 1
 546.5 160 l 1
EndSplineSet
EndChar

StartChar: A
Encoding: 65 65 71
Width: 617
Flags: W
LayerCount: 2
Fore
SplineSet
361.890032383 750 m 1
 363.286238866 744.277842283 l 1
 546.286238866 9.0945528121 l 1
 548.550032383 -1.10134124043e-13 l 1
 539 0 l 1
 446 0 l 1
 440.109409325 0 l 1
 438.713597459 5.72282864857 l 1
 390.109409325 205 l 1
 225.918588828 205 l 1
 178.294516623 5.75643261206 l 1
 176.918588828 4.88498130835e-14 l 1
 171 0 l 1
 78 0 l 1
 68.4623319584 0 l 1
 70.7115289623 9.0855585127 l 1
 252.711528962 744.268668972 l 1
 254.102331958 750 l 1
 260 750 l 1
 356 750 l 1
 361.890032383 750 l 1
252.528115898 302.5 m 1
 364.437406919 302.5 l 1
 308.05562671 532.298467822 l 1
 252.528115898 302.5 l 1
EndSplineSet
EndChar

StartChar: G
Encoding: 71 71 72
Width: 617
Flags: W
LayerCount: 2
Fore
SplineSet
308 382.5 m 1
 449.022692741 382.5 l 1
 449.022692741 382.5 546.5 382.38958168 546.5 286.875 c 2
 546.5 164.278846154 l 2
 546.5 -0.0524801646085 396.574837695 0 308 0 c 0
 162.500377028 0 70.5 94.3043188155 70.5 375 c 0
 70.5 655.695755892 162.499647613 750 308 750 c 0
 396.576486261 750 546.5 750 546.5 597.5 c 2
 546.5 590 l 1
 539 590 l 1
 449 590 l 1
 441.5 590 l 1
 441.5 597.5 l 2
 441.5 658.30937505 358.877663181 660 310 660 c 2
 308 660 l 2
 224.739762975 660 175.5 595.878388506 175.5 375 c 0
 175.5 154.121600263 224.73973441 90 308 90 c 2
 310 90 l 2
 358.876341265 90 441.5 91.7611535725 441.5 155.104166667 c 2
 441.5 277.5 l 1
 308 277.5 l 1
 300.5 277.5 l 1
 300.5 285 l 1
 300.5 375 l 1
 300.5 382.5 l 1
 308 382.5 l 1
EndSplineSet
EndChar

StartChar: H
Encoding: 72 72 73
Width: 617
Flags: W
LayerCount: 2
Fore
SplineSet
70.5 750 m 1
 78 750 l 1
 168 750 l 1
 175.5 750 l 1
 175.5 742.5 l 1
 175.5 427.5 l 1
 441.5 427.5 l 1
 441.5 742.5 l 1
 441.5 750 l 1
 449 750 l 1
 539 750 l 1
 546.5 750 l 1
 546.5 742.5 l 1
 546.5 7.5 l 1
 546.5 0 l 1
 539 0 l 1
 449 0 l 1
 441.5 0 l 1
 441.5 7.5 l 1
 441.5 322.5 l 1
 175.5 322.5 l 1
 175.5 7.5 l 1
 175.5 0 l 1
 168 0 l 1
 78 0 l 1
 70.5 0 l 1
 70.5 7.5 l 1
 70.5 742.5 l 1
 70.5 750 l 1
EndSplineSet
EndChar

StartChar: I
Encoding: 73 73 74
Width: 617
Flags: W
LayerCount: 2
Fore
SplineSet
527.5 750 m 1
 527.5 742.5 l 1
 527.5 666.346153846 l 1
 527.5 660 l 1
 520 660 l 1
 361.5 660 l 1
 361.5 90 l 1
 520 90 l 1
 527.5 90 l 1
 527.5 83.6538461538 l 1
 527.5 7.5 l 1
 527.5 0 l 1
 520 0 l 1
 98 0 l 1
 90.5 0 l 1
 90.5 7.5 l 1
 90.5 83.6538461538 l 1
 90.5 90 l 1
 98 90 l 1
 256.5 90 l 1
 256.5 660 l 1
 98 660 l 1
 90.5 660 l 1
 90.5 666.346153846 l 1
 90.5 742.5 l 1
 90.5 750 l 1
 98 750 l 1
 520 750 l 1
 527.5 750 l 1
EndSplineSet
EndChar

StartChar: J
Encoding: 74 74 75
Width: 617
Flags: W
LayerCount: 2
Fore
SplineSet
441.5 246.621621622 m 2
 441.5 660 l 1
 308 660 l 1
 300.5 660 l 1
 300.5 666.346153846 l 1
 300.5 742.5 l 1
 300.5 750 l 1
 308 750 l 1
 539 750 l 1
 546.5 750 l 1
 546.5 742.5 l 1
 546.5 252.400990099 l 2
 546.5 3.34056632267 449.100704265 0 308 0 c 0
 166.875096477 0 70.5 3.24287950712 70.5 242.5 c 2
 70.5 250 l 1
 78 250 l 1
 168 250 l 1
 175.5 250 l 1
 175.5 242.5 l 2
 175.5 86.0912929826 219.418113675 90 308 90 c 0
 396.615802862 90 441.5 86.061316853 441.5 246.621621622 c 2
EndSplineSet
EndChar

StartChar: K
Encoding: 75 75 76
Width: 617
VWidth: 0
Flags: W
LayerCount: 2
Fore
SplineSet
70.5 750 m 1
 78 750 l 1
 168 750 l 1
 175.5 750 l 1
 175.5 742.5 l 1
 175.5 211.225053753 l 1
 261.906244718 389.930789595 346.94998924 567.47904253 433.24925983 745.767645508 c 2
 435.297899505 750 l 1
 440 750 l 1
 539 750 l 1
 550.947928914 750 l 1
 545.75438042 739.45086835 l 1
 366.327928914 375 l 1
 545.75438042 10.5491316499 l 1
 550.947928914 5.3290705182e-15 l 1
 539 0 l 1
 440 0 l 1
 435.303192288 0 l 1
 433.252575029 4.2255143522 l 1
 308.051581656 262.215440091 l 1
 184.766848462 4.26584448514 l 1
 182.72802573 -5.41788836017e-14 l 1
 178 0 l 1
 78 0 l 1
 70.5 0 l 1
 70.5 7.5 l 1
 70.5 742.5 l 1
 70.5 750 l 1
EndSplineSet
EndChar

StartChar: M
Encoding: 77 77 77
Width: 617
VWidth: 0
Flags: W
LayerCount: 2
Fore
SplineSet
441.5 7.5 m 1
 441.5 541.325925521 l 1
 366.810727857 379.359301662 l 1
 364.800479941 375 l 1
 360 375 l 1
 259 375 l 1
 254.244393799 375 l 1
 252.216251364 379.301444944 l 1
 175.5 542.007340694 l 1
 175.5 7.5 l 1
 175.5 0 l 1
 168 0 l 1
 78 0 l 1
 70.5 0 l 1
 70.5 7.5 l 1
 70.5 742.5 l 1
 70.5 750 l 1
 78 750 l 1
 178 750 l 1
 182.742941214 750 l 1
 184.77601825 745.71489917 l 1
 308.051652428 485.887793288 l 1
 433.243201622 745.755099949 l 1
 435.288189968 750 l 1
 440 750 l 1
 539 750 l 1
 546.5 750 l 1
 546.5 742.5 l 1
 546.5 7.5 l 1
 546.5 0 l 1
 539 0 l 1
 449 0 l 1
 441.5 0 l 1
 441.5 7.5 l 1
EndSplineSet
EndChar

StartChar: N
Encoding: 78 78 78
Width: 617
VWidth: 0
Flags: W
LayerCount: 2
Fore
SplineSet
441.5 750 m 1
 449 750 l 1
 539 750 l 1
 546.5 750 l 1
 546.5 742.5 l 1
 546.5 7.5 l 1
 546.5 0 l 1
 539 0 l 1
 440 0 l 1
 435.297899505 0 l 1
 433.24925983 4.2323544924 l 2
 347.060565642 182.292513915 260.813104673 360.480537222 175.5 538.481128746 c 1
 175.5 7.5 l 1
 175.5 0 l 1
 168 0 l 1
 78 0 l 1
 70.5 0 l 1
 70.5 7.5 l 1
 70.5 742.5 l 1
 70.5 750 l 1
 78 750 l 1
 178 750 l 1
 182.724690553 750 l 1
 184.7647883 745.738462484 l 2
 269.977127082 567.739354805 355.913751321 388.240887507 441.5 211.225347929 c 1
 441.5 742.5 l 1
 441.5 750 l 1
EndSplineSet
EndChar

StartChar: O
Encoding: 79 79 79
Width: 617
Flags: W
LayerCount: 2
Fore
SplineSet
308 750 m 0
 450.966301707 750 546.5 744.687974988 546.5 375 c 0
 546.5 5.3139851494 450.972556988 0 308 0 c 0
 165.010089023 0 70.5 5.34628470159 70.5 375 c 0
 70.5 744.652009486 165.004461767 750 308 750 c 0
441.5 375 m 0
 441.5 666.803013825 394.00188999 660 308 660 c 0
 222.034572027 660 175.5 666.858448629 175.5 375 c 0
 175.5 83.1415736584 222.034835118 90 308 90 c 0
 394.001442729 90 441.5 83.1969840338 441.5 375 c 0
EndSplineSet
EndChar

StartChar: P
Encoding: 80 80 80
Width: 617
Flags: W
LayerCount: 2
Fore
SplineSet
175.5 660 m 1
 175.5 427.5 l 1
 308 427.5 l 2
 438.717316759 427.5 441.400517406 539.388612974 441.499090912 543.75 c 0
 441.377893132 549.112398568 438.144948675 660 308 660 c 2
 175.5 660 l 1
70.5 750 m 1
 78 750 l 1
 308 750 l 2
 544.889710075 750 546.499001452 536.433239856 546.500142069 536.25 c 0
 546.492428746 535.010856365 544.30217412 322.5 308 322.5 c 2
 175.5 322.5 l 1
 175.5 7.5 l 1
 175.5 0 l 1
 168 0 l 1
 78 0 l 1
 70.5 0 l 1
 70.5 7.5 l 1
 70.5 742.5 l 1
 70.5 750 l 1
EndSplineSet
EndChar

StartChar: Q
Encoding: 81 81 81
Width: 617
Flags: W
LayerCount: 2
Fore
SplineSet
441.5 375 m 0
 441.5 666.803013825 394.00188999 660 308 660 c 0
 222.034572027 660 175.5 666.858448629 175.5 375 c 0
 175.5 83.1415736584 222.034835118 90 308 90 c 0
 333.169138499 90 356.582076904 97.2906215991 373.871427919 112.816885208 c 1
 334.98755754 196.457508084 335.553681272 192.385419666 295.230001898 279.252779056 c 2
 290.115701356 290.27027027 l 1
 302 290.27027027 l 1
 402 290.27027027 l 1
 406.698691282 290.27027027 l 1
 408.748605804 285.928052685 l 1
 431.175243354 238.422979226 l 1
 438.040259596 276.711272414 441.5 322.194828732 441.5 375 c 0
433.26559458 4.19882087233 m 1
 412.652259716 46.2500239934 l 1
 378.017391485 16.197217825 341.26898379 0 308 0 c 0
 165.010089023 0 70.5 5.34628470159 70.5 375 c 0
 70.5 744.652009486 165.004461767 750 308 750 c 0
 450.966301707 750 546.5 744.687974988 546.5 375 c 0
 546.5 279.235323257 520.562121162 197.139877454 484.474781475 134.519707655 c 1
 545.749223285 10.5595857236 l 1
 550.968907736 8.34887714518e-14 l 1
 539 0 l 1
 440 0 l 1
 435.323840105 0 l 1
 433.26559458 4.19882087233 l 1
EndSplineSet
EndChar

StartChar: R
Encoding: 82 82 82
Width: 617
Flags: W
LayerCount: 2
Fore
SplineSet
70.5 750 m 1
 78 750 l 1
 308 750 l 2
 544.88967128 750 546.499116314 536.928818219 546.5 536.787196104 c 0
 546.5 404.224429056 432.019580714 341.863267571 388.214458258 331.845169521 c 1
 545.759543807 10.5386224961 l 1
 550.926908737 -1.59872115546e-13 l 1
 539 0 l 1
 440 0 l 1
 435.301308718 0 l 1
 433.251394196 4.2279487011 l 1
 275.301308718 330 l 1
 175.5 330 l 1
 175.5 7.5 l 1
 175.5 0 l 1
 168 0 l 1
 78 0 l 1
 70.5 0 l 1
 70.5 7.5 l 1
 70.5 742.5 l 1
 70.5 750 l 1
175.5 660 m 1
 175.5 427.5 l 1
 308 427.5 l 2
 438.717316759 427.5 441.400517406 539.388612974 441.499090912 543.75 c 0
 441.377893132 549.112398568 438.144948675 660 308 660 c 2
 175.5 660 l 1
EndSplineSet
EndChar

StartChar: S
Encoding: 83 83 83
Width: 617
Flags: W
LayerCount: 2
Fore
SplineSet
308 344.5 m 2
 167.663319283 344.5 70.5 347.032644329 70.5 558.050242131 c 0
 70.5 747.998460979 168.153886779 750 308 750 c 0
 448.984726584 750 546.5 716.921239105 546.5 577.5 c 2
 546.5 570 l 1
 539 570 l 1
 449 570 l 1
 441.5 570 l 1
 441.5 577.5 l 2
 441.5 656.602611029 411.324376016 660 344 660 c 2
 308 660 l 2
 217.269229727 660 175.5 661.574231386 175.5 566.156403941 c 0
 175.5 445.252085188 187.721969268 449.5 308 449.5 c 2
 312 449.5 l 2
 450.433804009 449.5 546.5 445.913063814 546.5 235.569474836 c 0
 546.5 2.98621405082 448.759564705 0 308 0 c 0
 168.344241022 0 70.5 1.67542488821 70.5 172.5 c 2
 70.5 180 l 1
 78 180 l 1
 168 180 l 1
 175.5 180 l 1
 175.5 172.5 l 2
 175.5 89.8443591631 217.015828519 90 306 90 c 2
 308 90 l 2
 397.154817311 90 441.5 86.6525458376 441.5 228.584008097 c 0
 441.5 347.828268208 429.079533587 344.5 314 344.5 c 2
 308 344.5 l 2
EndSplineSet
EndChar

StartChar: U
Encoding: 85 85 84
Width: 617
Flags: W
LayerCount: 2
Fore
SplineSet
441.5 750 m 1
 449 750 l 1
 539 750 l 1
 546.5 750 l 1
 546.5 742.5 l 1
 546.5 232.797029703 l 2
 546.5 5.66617758424 539.641302603 0 308 0 c 0
 70.6131828474 0 70.5 232.797029703 70.5 232.797029703 c 1
 70.5 742.5 l 1
 70.5 750 l 1
 78 750 l 1
 168 750 l 1
 175.5 750 l 1
 175.5 742.5 l 1
 175.499985806 222.514591412 l 2
 175.500756924 222.11823698 175.387550348 90 308 90 c 0
 446.37636554 90 441.5 84.252625505 441.5 222.5 c 2
 441.5 742.5 l 1
 441.5 750 l 1
EndSplineSet
EndChar

StartChar: V
Encoding: 86 86 85
Width: 617
Flags: W
LayerCount: 2
Fore
SplineSet
361.890032383 2.39808173319e-13 m 1
 356 0 l 1
 260 0 l 1
 254.102331958 0 l 1
 252.711528962 5.73133102817 l 1
 70.7115289623 740.914441487 l 1
 68.4623319584 750 l 1
 78 750 l 1
 171 750 l 1
 176.896286219 750 l 1
 178.288068101 744.270328599 l 1
 308.026496679 210.164681025 l 1
 438.714904888 744.282523272 l 1
 440.11386196 750 l 1
 446 750 l 1
 539 750 l 1
 548.550032383 750 l 1
 546.286238866 740.905447188 l 1
 363.286238866 5.72215771664 l 1
 361.890032383 2.39808173319e-13 l 1
EndSplineSet
EndChar

StartChar: W
Encoding: 87 87 86
Width: 617
Flags: W
LayerCount: 2
Fore
SplineSet
176.478641826 743.065611567 m 1
 209.001936317 320.5353844 l 1
 254.727732674 501.834155919 l 1
 256.156728747 507.5 l 1
 262 507.5 l 1
 354 507.5 l 1
 359.830972256 507.5 l 1
 361.268505849 501.849005874 l 1
 407.96464842 318.284859216 l 1
 440.521180574 743.063258367 l 1
 441.043612998 750 l 1
 448 750 l 1
 539 750 l 1
 547.091628813 750 l 1
 546.478433382 742.091288799 l 1
 489.478433382 6.93163906299 l 1
 488.951628813 3.19744231092e-13 l 1
 482 0 l 1
 392 0 l 1
 386.200992714 0 l 1
 384.741440668 5.6123251273 l 1
 308.087518573 300.364906518 l 1
 233.269401197 5.65451734317 l 1
 231.833889054 -1.14575016141e-13 l 1
 226 0 l 1
 135 0 l 1
 128.048371187 0 l 1
 127.521566618 6.93163906299 l 1
 70.5215666182 742.091288799 l 1
 69.908371187 750 l 1
 78 750 l 1
 169 750 l 1
 175.95419228 750 l 1
 176.478641826 743.065611567 l 1
EndSplineSet
EndChar

StartChar: X
Encoding: 88 88 87
Width: 617
VWidth: 0
Flags: W
LayerCount: 2
Fore
SplineSet
435.303192288 750 m 1
 440 750 l 1
 539 750 l 1
 550.947928914 750 l 1
 545.75438042 739.45086835 l 1
 366.327928914 375 l 1
 545.75438042 10.5491316499 l 1
 550.947928914 5.3290705182e-15 l 1
 539 0 l 1
 440 0 l 1
 435.303192288 0 l 1
 433.252575029 4.2255143522 l 1
 308.051581656 262.215440091 l 1
 184.766848462 4.26584448514 l 1
 182.72802573 -5.41788836017e-14 l 1
 178 0 l 1
 78 0 l 1
 66.0520710858 0 l 1
 71.2456195797 10.5491316499 l 1
 250.672071086 375 l 1
 71.2456195797 739.45086835 l 1
 66.0520710858 750 l 1
 78 750 l 1
 178 750 l 1
 182.72802573 750 l 1
 184.766848462 745.734155515 l 1
 308.051581656 487.784559909 l 1
 433.252575029 745.774485648 l 1
 435.303192288 750 l 1
EndSplineSet
EndChar

StartChar: Y
Encoding: 89 89 88
Width: 617
Flags: W
LayerCount: 2
Fore
SplineSet
256.5 7.5 m 1
 256.5 373.351240231 l 1
 71.2810802518 739.381922423 l 1
 65.908118491 750 l 1
 78 750 l 1
 178 750 l 1
 182.6668177 750 l 1
 184.728469287 745.813261392 l 1
 308 495.477229791 l 1
 431.271530713 745.813261392 l 1
 433.3331823 750 l 1
 438 750 l 1
 539 750 l 1
 551.063013811 750 l 1
 545.726044136 739.396039648 l 1
 361.5 373.359545746 l 1
 361.5 7.5 l 1
 361.5 0 l 1
 354 0 l 1
 264 0 l 1
 256.5 0 l 1
 256.5 7.5 l 1
EndSplineSet
EndChar

StartChar: Z
Encoding: 90 90 89
Width: 617
VWidth: 0
Flags: W
LayerCount: 2
Fore
SplineSet
546.5 0 m 1
 539 0 l 1
 78 0 l 1
 66.0611989071 0 l 1
 71.2433769385 10.7554638387 l 1
 384.061198907 660 l 1
 78 660 l 1
 70.5 660 l 1
 70.5 666.346153846 l 1
 70.5 742.5 l 1
 70.5 750 l 1
 78 750 l 1
 539 750 l 1
 550.938801093 750 l 1
 545.756623061 739.244536161 l 2
 441.611637118 523.094565335 335.416113791 304.697366454 231.939589174 90 c 1
 539 90 l 1
 546.5 90 l 1
 546.5 83.6538461538 l 1
 546.5 7.5 l 1
 546.5 0 l 1
EndSplineSet
EndChar

StartChar: backslash
Encoding: 92 92 90
Width: 617
VWidth: 0
Flags: W
LayerCount: 2
Fore
SplineSet
398.83962641 0 m 1
 396.995344567 4.81955185423 l 1
 109.995344567 740.020434056 l 1
 106.09962641 750 l 1
 117 750 l 1
 213 750 l 1
 218.16037359 750 l 1
 220.004655433 745.180448146 l 1
 507.004655433 9.97956594397 l 1
 510.90037359 3.73034936274e-14 l 1
 500 0 l 1
 404 0 l 1
 398.83962641 0 l 1
EndSplineSet
EndChar

StartChar: asciicircum
Encoding: 94 94 91
Width: 617
Flags: W
LayerCount: 2
Fore
SplineSet
359.128378719 750 m 1
 360.988985231 745.221044917 l 1
 506.988985231 385.221044917 l 1
 510.968378719 375 l 1
 500 375 l 1
 404 375 l 1
 398.906634595 375 l 1
 397.028506174 379.73444873 l 1
 308.073488377 603.975222759 l 1
 220.991118783 379.784441464 l 1
 219.132699371 375 l 1
 214 375 l 1
 117 375 l 1
 106.004343602 375 l 1
 110.017328791 385.237207114 l 1
 257.017328791 745.237207114 l 1
 258.884343602 750 l 1
 264 750 l 1
 354 750 l 1
 359.128378719 750 l 1
EndSplineSet
EndChar

StartChar: grave
Encoding: 96 96 92
Width: 617
Flags: W
LayerCount: 2
Fore
SplineSet
163.868234772 641.030464476 m 0
 163.858098139 641.040048745 128.6483571 672.924321688 127.5 707.375034703 c 0
 127.5 729.357973445 145.238838526 750 168 750 c 2
 169 750 l 2
 203.421265362 750 236.156033652 716.946940784 236.156033652 716.946940784 c 1
 293.37001093 663.678755043 358.247346453 609.351289256 360.5 558.666584443 c 0
 360.5 543.922736955 352.10069947 530 335 530 c 2
 333 530 l 2
 284.001354457 530 221.532948843 587.342627238 163.868234772 641.030464476 c 0
EndSplineSet
EndChar

StartChar: bar
Encoding: 124 124 93
Width: 617
VWidth: 0
Flags: W
LayerCount: 2
Fore
SplineSet
256.5 750 m 1
 264 750 l 1
 354 750 l 1
 361.5 750 l 1
 361.5 742.5 l 1
 361.5 -82.5 l 1
 361.5 -90 l 1
 354 -90 l 1
 264 -90 l 1
 256.5 -90 l 1
 256.5 -82.5 l 1
 256.5 742.5 l 1
 256.5 750 l 1
EndSplineSet
EndChar

StartChar: asciitilde
Encoding: 126 126 94
Width: 617
Flags: W
LayerCount: 2
Fore
SplineSet
70.4849954484 275.5 m 1
 70.5000235006 283.021393595 l 2
 70.5000235006 283.790457599 71.2279193576 427.5 216 427.5 c 0
 357.080165164 427.5 365.023186636 337.5 402 337.5 c 0
 443.013349028 337.5 441.5 372.908780177 441.5 375 c 2
 441.5 382.5 l 1
 449 382.5 l 1
 539 382.5 l 1
 546.5 382.5 l 1
 546.5 375 l 2
 546.5 368.15106723 545.111883616 232.5 402 232.5 c 0
 260.870914219 232.5 253.088848868 322.5 215 322.5 c 0
 175.384379214 322.5 175.502529373 283.407934768 175.499870246 282.955883116 c 2
 175.45601211 275.5 l 1
 168 275.5 l 1
 78 275.5 l 1
 70.4849954484 275.5 l 1
EndSplineSet
EndChar

StartChar: exclamdown
Encoding: 161 161 96
Width: 617
Flags: W
LayerCount: 2
Fore
SplineSet
211.5 492.5 m 0
 211.5 541.809763075 258.515456595 590 308 590 c 0
 357.420582584 590 405.5 541.899386655 405.5 492.5 c 0
 405.5 450.682583967 357.399386655 410 308 410 c 0
 258.499072603 410 211.5 450.791791203 211.5 492.5 c 0
256.5 265 m 1
 264 265 l 1
 354 265 l 1
 361.5 265 l 1
 361.5 257.5 l 1
 361.5 -242.5 l 1
 361.5 -250 l 1
 354 -250 l 1
 264 -250 l 1
 256.5 -250 l 1
 256.5 -242.5 l 1
 256.5 257.5 l 1
 256.5 265 l 1
EndSplineSet
EndChar

StartChar: cent
Encoding: 162 162 97
Width: 617
Flags: W
LayerCount: 2
Fore
SplineSet
256.5 750 m 1
 264 750 l 1
 354 750 l 1
 361.5 750 l 1
 361.5 742.5 l 1
 361.5 625.092894477 l 1
 446.577486375 621.0320652 546.5 596.20895606 546.5 462.22 c 2
 546.5 454.87 l 1
 539 454.87 l 1
 449 454.87 l 1
 441.5 454.87 l 1
 441.5 462.22 l 2
 441.5 502.943688228 403.741784075 516.72705966 361.5 521.697123816 c 1
 361.5 226.342876184 l 1
 405.044908782 231.46626278 441.5 245.459660289 441.5 285.82 c 2
 441.5 293.17 l 1
 449 293.17 l 1
 539 293.17 l 1
 546.5 293.17 l 1
 546.5 285.82 l 2
 546.5 151.347545452 445.290177658 126.946490332 361.5 122.947105523 c 1
 361.5 7.5 l 1
 361.5 0 l 1
 354 0 l 1
 264 0 l 1
 256.5 0 l 1
 256.5 7.5 l 1
 256.5 125.75299254 l 1
 141.069687699 146.761474137 70.5 235.027761827 70.5 374.02 c 0
 70.5 513.624240617 142.237671572 601.491100595 256.5 622.28700746 c 1
 256.5 742.5 l 1
 256.5 750 l 1
256.5 230.759411812 m 1
 256.5 517.240588188 l 1
 203.955084559 494.927392959 175.5 440.614349765 175.5 374 c 0
 175.5 306.868607454 204.98478721 252.635343871 256.5 230.759411812 c 1
EndSplineSet
EndChar

StartChar: sterling
Encoding: 163 163 98
Width: 617
Flags: W
LayerCount: 2
Fore
SplineSet
70.753237953 9.24751948941 m 1
 94.5 96.5517917211 l 1
 94.5 541.666666667 l 2
 94.5 585.036700076 111.168246032 750 333 750 c 0
 409.952978248 750 480.086507142 724.578858295 542.354101966 697.892746228 c 2
 549.241159964 694.941149943 l 1
 545.617647059 689.117647059 l 1
 505.617647059 618.970588235 l 1
 502.210463985 612.582119972 l 1
 495.70592401 615.762117293 l 2
 450.446380677 637.889005145 411.46499217 660 333 660 c 0
 258.890104321 660 199.5 642.216454805 199.5 549.513888889 c 2
 199.5 382.5 l 1
 402 382.5 l 1
 409.5 382.5 l 1
 409.5 375 l 1
 409.5 285 l 1
 409.5 277.5 l 1
 402 277.5 l 1
 199.5 277.5 l 1
 199.5 90 l 1
 539 90 l 1
 546.5 90 l 1
 546.5 83.6538461538 l 1
 546.5 7.5 l 1
 546.5 0 l 1
 539 0 l 1
 78 0 l 1
 68.2379126519 0 l 1
 70.753237953 9.24751948941 l 1
EndSplineSet
EndChar

StartChar: Euro
Encoding: 8364 8364 99
Width: 617
Flags: W
LayerCount: 2
Fore
SplineSet
546.5 160 m 1
 546.5 152.5 l 2
 546.5 -0.0487173199116 396.574837695 0 308 0 c 0
 162.500377028 0 70.5 94.3043188155 70.5 375 c 0
 70.5 655.695755892 162.499647613 750 308 750 c 0
 396.576486261 750 546.5 750 546.5 597.5 c 2
 546.5 590 l 1
 539 590 l 1
 449 590 l 1
 441.5 590 l 1
 441.5 597.5 l 2
 441.5 658.30937505 358.877663181 660 310 660 c 2
 308 660 l 2
 243.937151542 660 203.311873452 622.022064514 184.800720731 507.5 c 1
 402 507.5 l 1
 409.5 507.5 l 1
 409.5 500 l 1
 409.5 410 l 1
 409.5 402.5 l 1
 402 402.5 l 1
 175.5 402.5 l 1
 175.5 347.5 l 1
 402 347.5 l 1
 409.5 347.5 l 1
 409.5 340 l 1
 409.5 250 l 1
 409.5 242.5 l 1
 402 242.5 l 1
 184.800720731 242.5 l 1
 203.542723193 126.549748413 244.319211634 90 308 90 c 2
 310 90 l 2
 358.876341265 90 441.5 91.6907074296 441.5 152.5 c 2
 441.5 160 l 1
 449 160 l 1
 539 160 l 1
 546.5 160 l 1
EndSplineSet
EndChar

StartChar: yen
Encoding: 165 165 100
Width: 617
Flags: W
LayerCount: 2
Fore
SplineSet
500 277.5 m 1
 361.5 277.5 l 1
 361.5 257.5 l 1
 500 257.5 l 1
 507.5 257.5 l 1
 507.5 250 l 1
 507.5 160 l 1
 507.5 152.5 l 1
 500 152.5 l 1
 361.5 152.5 l 1
 361.5 7.5 l 1
 361.5 0 l 1
 354 0 l 1
 264 0 l 1
 256.5 0 l 1
 256.5 7.5 l 1
 256.5 152.5 l 1
 117 152.5 l 1
 109.5 152.5 l 1
 109.5 160 l 1
 109.5 250 l 1
 109.5 257.5 l 1
 117 257.5 l 1
 256.5 257.5 l 1
 256.5 277.5 l 1
 117 277.5 l 1
 109.5 277.5 l 1
 109.5 285 l 1
 109.5 375 l 1
 109.5 382.5 l 1
 117 382.5 l 1
 251.908118491 382.5 l 1
 71.2810802518 739.384067489 l 1
 65.908118491 750 l 1
 78 750 l 1
 178 750 l 1
 182.6668177 750 l 1
 184.728469287 745.813261392 l 1
 308 495.477229791 l 1
 431.271530713 745.813261392 l 1
 433.3331823 750 l 1
 438 750 l 1
 539 750 l 1
 551.063013811 750 l 1
 545.726044136 739.398181862 l 1
 366.063013811 382.5 l 1
 500 382.5 l 1
 507.5 382.5 l 1
 507.5 375 l 1
 507.5 285 l 1
 507.5 277.5 l 1
 500 277.5 l 1
EndSplineSet
EndChar

StartChar: section
Encoding: 167 167 102
Width: 617
Flags: W
LayerCount: 2
Fore
SplineSet
441.5 250 m 0
 441.5 347.806128786 428.969572187 344.5 308 344.5 c 0
 217.438769072 344.5 175.5 346.206635284 175.5 250 c 0
 175.5 150.02635609 187.1551786 153.5 308 153.5 c 2
 312 153.5 l 2
 400.247728291 153.5 441.5 153.583246598 441.5 250 c 0
546.5 252.925219941 m 0
 546.5 192.012440298 525.42289604 149.284184607 495.261736149 120.087325283 c 1
 529.482868957 88.3459472959 546.5 36.6695167701 546.5 -54.5 c 0
 546.5 -247.999339864 447.82032076 -250 308 -250 c 0
 166.985900612 -250 70.5 -214.003450224 70.5 -62.5 c 2
 70.5 -55 l 1
 78 -55 l 1
 168 -55 l 1
 175.5 -55 l 1
 175.5 -62.5 l 2
 175.5 -141.513806789 206.615121616 -145 274 -145 c 2
 308 -145 l 2
 398.773455419 -145 441.5 -146.45337111 441.5 -54.5 c 0
 441.5 59.8838103336 428.323059709 55.9408175717 308 55.9408175717 c 0
 168.061305131 55.9408175717 70.5 58.0420768098 70.5 251.789200732 c 0
 70.5 322.510410573 82.575072667 369.565531819 107.18721805 399.197177176 c 1
 82.0608318246 431.195831939 70.5 480.214757232 70.5 558.078401464 c 0
 70.5 747.998754608 168.153886779 750 308 750 c 0
 448.984726584 750 546.5 716.921239105 546.5 577.5 c 2
 546.5 570 l 1
 539 570 l 1
 449 570 l 1
 441.5 570 l 1
 441.5 577.5 l 2
 441.5 656.602611029 411.324376016 660 344 660 c 2
 308 660 l 2
 217.269229727 660 175.5 661.574231386 175.5 566.156403941 c 0
 175.5 445.252085188 187.721969268 449.5 308 449.5 c 0
 447.912913339 449.5 546.5 447.428414117 546.5 252.925219941 c 0
EndSplineSet
EndChar

StartChar: copyright
Encoding: 169 169 104
Width: 617
Flags: W
LayerCount: 2
Fore
SplineSet
308 617 m 0
 623.384673128 617 624.500064528 308.011811983 624.500064528 308.011811983 c 2
 624.500064528 307.237136995 622.811029039 0 308 0 c 0
 -7.38680782885 0 -7.49999544101 308.021083636 -7.49999544101 308.021083636 c 2
 -7.4993744361 308.712037756 -6.84791803894 617 308 617 c 0
526.499360725 308.03498423 m 0
 526.391674811 314.485054 521.499122368 519 308 519 c 0
 92.470201583 519 91.5092432739 310.490524555 91.5000356614 308.026906111 c 0
 91.5129456929 304.619844916 92.9548213935 99 308 99 c 0
 522.057134831 99 526.409155329 302.691602893 526.499360725 308.03498423 c 0
472.5 256.5 m 1
 472.5 249 l 2
 472.5 135.498156143 369.654392384 134.5 311 134.5 c 2
 308 134.5 l 2
 189.318965563 134.5 134.5 196.687861275 134.5 308 c 0
 134.5 419.231851838 189.191965276 483.5 308 483.5 c 2
 311 483.5 l 2
 369.655551735 483.5 472.5 482.504329567 472.5 369 c 2
 472.5 361.5 l 1
 465 361.5 l 1
 392 361.5 l 1
 384.5 361.5 l 1
 384.5 369 l 2
 384.5 407.772114295 347.20204409 408.5 308 408.5 c 0
 240.305457959 408.5 222.5 366.396289671 222.5 308 c 0
 222.5 249.665600904 240.245173918 208.5 308 208.5 c 0
 346.995219357 208.5 384.5 210.138556833 384.5 249 c 2
 384.5 256.5 l 1
 392 256.5 l 1
 465 256.5 l 1
 472.5 256.5 l 1
EndSplineSet
EndChar

StartChar: ordfeminine
Encoding: 170 170 105
Width: 617
Flags: W
LayerCount: 2
Fore
SplineSet
109.5 302.5 m 1
 117 302.5 l 1
 500 302.5 l 1
 507.5 302.5 l 1
 507.5 295 l 1
 507.5 205 l 1
 507.5 197.5 l 1
 500 197.5 l 1
 117 197.5 l 1
 109.5 197.5 l 1
 109.5 205 l 1
 109.5 295 l 1
 109.5 302.5 l 1
308 522.5 m 2
 255.39352455 522.5 199.5 519.089243297 199.5 486 c 0
 199.5 452.427776055 244.503244548 449.5 308 449.5 c 2
 406 449.5 l 1
 418.5 449.5 l 1
 418.5 522.5 l 1
 408 522.5 l 1
 308 522.5 l 2
167.85245508 630.967692317 m 1
 164.509302859 636.742227971 l 1
 131.509302859 693.742227971 l 1
 127.417925013 700.809153342 l 1
 134.806522228 704.286140267 l 2
 186.196962456 728.469876844 244.287050065 750 308 750 c 0
 491.257067852 750 507.5 624.854062657 507.5 591.605769231 c 2
 507.5 374.855769231 l 1
 507.5 367.5 l 1
 500 367.5 l 1
 407 367.5 l 1
 308 367.5 l 2
 191.205149705 367.5 109.5 394.982822078 109.5 486 c 0
 109.5 587.072929529 191.792684006 603.5 308 603.5 c 2
 411 603.5 l 1
 418.27499105 603.5 l 1
 414.397283619 656.370157921 367.392880613 667 308 667 c 0
 243.43057683 667 211.353777436 649.779074957 173.97683363 633.61607223 c 2
 167.85245508 630.967692317 l 1
EndSplineSet
EndChar

StartChar: guillemotleft
Encoding: 171 171 106
Width: 617
Flags: W
LayerCount: 2
Fore
SplineSet
300.5 285 m 1
 300.5 375 l 1
 300.5 372.762043696 l 1
 303.021794665 375 l 1
 534.021794665 580 l 1
 546.5 591.073732007 l 1
 546.5 580 l 1
 546.5 478 l 1
 546.5 470.496556363 l 1
 544.768043556 468.412576251 l 1
 425.752006803 330 l 1
 544.768043556 186.793711874 l 1
 546.5 184.709731763 l 1
 546.5 182 l 1
 546.5 80 l 1
 546.5 68.9262679927 l 1
 534.021794665 80 l 1
 303.021794665 279.390412525 l 1
 300.5 281.628368829 l 1
 300.5 285 l 1
70.5 285 m 1
 70.5 375 l 1
 70.5 372.763074704 l 1
 73.0097210643 375 l 1
 303.009721064 580 l 1
 315.5 591.132639921 l 1
 315.5 580 l 1
 315.5 478 l 1
 315.5 470.536710162 l 1
 313.787218635 468.458909818 l 1
 195.719694994 330 l 1
 313.787218635 186.770545091 l 1
 315.5 184.692744747 l 1
 315.5 182 l 1
 315.5 80 l 1
 315.5 68.8673600791 l 1
 303.009721064 80 l 1
 73.0097210643 279.401150462 l 1
 70.5 281.638075759 l 1
 70.5 285 l 1
EndSplineSet
EndChar

StartChar: logicalnot
Encoding: 172 172 107
Width: 617
Flags: W
LayerCount: 2
Fore
SplineSet
70.5 382.5 m 1
 78 382.5 l 1
 539 382.5 l 1
 546.5 382.5 l 1
 546.5 375 l 1
 546.5 125 l 1
 546.5 117.5 l 1
 539 117.5 l 1
 449 117.5 l 1
 441.5 117.5 l 1
 441.5 125 l 1
 441.5 277.5 l 1
 78 277.5 l 1
 70.5 277.5 l 1
 70.5 285 l 1
 70.5 375 l 1
 70.5 382.5 l 1
EndSplineSet
EndChar

StartChar: uni00AD
Encoding: 173 173 108
Width: 617
Flags: W
LayerCount: 2
Fore
SplineSet
109.5 390 m 1
 117 390 l 1
 500 390 l 1
 507.5 390 l 1
 507.5 382.5 l 1
 507.5 292.5 l 1
 507.5 285 l 1
 500 285 l 1
 117 285 l 1
 109.5 285 l 1
 109.5 292.5 l 1
 109.5 382.5 l 1
 109.5 390 l 1
EndSplineSet
EndChar

StartChar: registered
Encoding: 174 174 109
Width: 617
Flags: W
LayerCount: 2
Fore
SplineSet
308 617 m 0
 623.384673128 617 624.500064528 308.011811983 624.500064528 308.011811983 c 2
 624.500064528 307.237136995 622.811029039 0 308 0 c 0
 -7.38680782885 0 -7.49999544101 308.021083636 -7.49999544101 308.021083636 c 2
 -7.4993744361 308.712037756 -6.84791803894 617 308 617 c 0
227.5 420.5 m 1
 227.5 343.5 l 1
 308 343.5 l 2
 388.271780912 343.5 388.466870656 381.497706744 388.496115708 382 c 0
 388.425383577 383.214847313 387.559262597 420.5 308 420.5 c 2
 227.5 420.5 l 1
158.5 144.704647249 m 1
 158.5 472.791760375 l 1
 91.9460330197 408.652585262 91.5062502747 309.714340478 91.5000356614 307.992152758 c 0
 91.5087397554 305.61303374 92.1669964574 208.033002396 158.5 144.704647249 c 1
220 140.228021978 m 1
 170.161343758 140.228021978 l 1
 201.736608686 115.980013161 245.986791389 99 308 99 c 0
 370.018339503 99 414.433549894 115.979229861 446.242100882 140.228021978 c 1
 390 140.228021978 l 1
 386.111141357 140.228021978 l 1
 383.870297741 143.275385867 l 1
 288.111141357 273.5 l 1
 227.5 273.5 l 1
 227.5 147.418956044 l 1
 227.5 140.228021978 l 1
 220 140.228021978 l 1
457.111713183 138.847063602 m 1
 458.166027834 137.364759836 l 1
 524.452897252 200.260614612 526.438732625 296.780907891 526.499360725 300.500519381 c 0
 526.391674811 307.180948786 521.499122368 519 308 519 c 0
 246.316837943 519 202.208268459 501.311770094 170.666872795 476 c 1
 308 476 l 2
 455.114940693 476 458.472441984 376.500434053 458.5 374.553065132 c 0
 458.5 314.540539468 390.964280146 279.615028668 362.879907941 271.331383845 c 1
 457.111713183 138.847063602 l 1
EndSplineSet
EndChar

StartChar: macron
Encoding: 175 175 110
Width: 617
Flags: W
LayerCount: 2
Fore
SplineSet
109.5 617 m 1
 117 617 l 1
 502 617 l 1
 509.5 617 l 1
 509.5 609.5 l 1
 509.5 520.5 l 1
 509.5 513 l 1
 502 513 l 1
 117 513 l 1
 109.5 513 l 1
 109.5 520.5 l 1
 109.5 609.5 l 1
 109.5 617 l 1
EndSplineSet
EndChar

StartChar: degree
Encoding: 176 176 111
Width: 617
Flags: W
LayerCount: 2
Fore
SplineSet
308.015214206 749.999988236 m 2
 308.646291797 749.999136998 507.5 749.457748203 507.5 562.019230544 c 0
 507.5 376.018442406 311.573667791 375 308 375 c 0
 304.396648104 375 109.5 376.041744714 109.5 562.019230544 c 0
 109.5 749.968423318 308.015214206 749.999988236 308.015214206 749.999988236 c 2
402.5 569.5 m 0
 402.5 664.260002342 312.185733815 666.900178401 308.00082873 666.998868532 c 0
 302.859116066 666.876025203 214.5 663.783885797 214.5 569.5 c 0
 214.5 473.746184074 305.770210461 473.018563568 308.000305286 473.000044735 c 0
 311.326393406 473.027393974 402.5 474.312137562 402.5 569.5 c 0
EndSplineSet
EndChar

StartChar: plusminus
Encoding: 177 177 112
Width: 617
Flags: W
LayerCount: 2
Fore
SplineSet
70.5 247.5 m 1
 78 247.5 l 1
 539 247.5 l 1
 546.5 247.5 l 1
 546.5 240 l 1
 546.5 150 l 1
 546.5 142.5 l 1
 539 142.5 l 1
 78 142.5 l 1
 70.5 142.5 l 1
 70.5 150 l 1
 70.5 240 l 1
 70.5 247.5 l 1
546.5 565.5 m 1
 546.5 558 l 1
 546.5 468 l 1
 546.5 460.5 l 1
 539 460.5 l 1
 361.5 460.5 l 1
 361.5 330 l 1
 361.5 322.5 l 1
 354 322.5 l 1
 264 322.5 l 1
 256.5 322.5 l 1
 256.5 330 l 1
 256.5 460.5 l 1
 78 460.5 l 1
 70.5 460.5 l 1
 70.5 468 l 1
 70.5 558 l 1
 70.5 565.5 l 1
 78 565.5 l 1
 256.5 565.5 l 1
 256.5 696 l 1
 256.5 703.5 l 1
 264 703.5 l 1
 354 703.5 l 1
 361.5 703.5 l 1
 361.5 696 l 1
 361.5 565.5 l 1
 539 565.5 l 1
 546.5 565.5 l 1
EndSplineSet
EndChar

StartChar: uni00B2
Encoding: 178 178 113
Width: 617
VWidth: 0
Flags: W
LayerCount: 2
Fore
SplineSet
456.5 623.870192308 m 0
 456.5 560.491974143 360.683230442 482.439547357 322.682307081 453 c 1
 449 453 l 1
 456.5 453 l 1
 456.5 445.5 l 1
 456.5 382.5 l 1
 456.5 375 l 1
 449 375 l 1
 168 375 l 1
 160.5 375 l 1
 160.5 382.5 l 1
 160.5 445.5 l 1
 160.5 449.730532969 l 1
 164.120640841 451.918767212 l 2
 165.63961763 452.775349457 367.5 570.168079595 367.5 620.411890442 c 0
 367.5 651.833269143 371.489110926 661 308 661 c 0
 244.736684855 661 249.5 650.431008563 249.5 617.5 c 2
 249.5 610 l 1
 242 610 l 1
 168 610 l 1
 160.5 610 l 1
 160.5 617.5 l 2
 160.5 678.499810636 163.354451528 750 308 750 c 0
 452.839436765 750 456.5 676.239977059 456.5 623.870192308 c 0
EndSplineSet
EndChar

StartChar: uni00B3
Encoding: 179 179 114
Width: 617
Flags: W
LayerCount: 2
Fore
SplineSet
405.11286383 576.898321283 m 1
 422.930271389 563.702253031 456.5 545.219505697 456.5 493.5 c 0
 456.5 409.133935779 395.718930597 375 308 375 c 0
 219.937103607 375 160.5 414.218304973 160.5 493.5 c 2
 160.5 501 l 1
 168 501 l 1
 242 501 l 1
 249.5 501 l 1
 249.5 493.5 l 2
 249.5 462.152670055 252.886322583 464 308 464 c 0
 363.190932296 464 367.5 462.48547372 367.5 493.5 c 0
 367.5 528.662577976 359.925458736 535.5 308 535.5 c 2
 300.5 535.5 l 1
 300.5 543 l 1
 300.5 606 l 1
 300.5 613.5 l 1
 308 613.5 l 2
 349.207091399 613.5 354.5 618.13432351 354.5 645.022727273 c 0
 354.5 661.862712951 352.737841378 661 308 661 c 0
 263.509776689 661 263.5 662.427984493 263.5 642.5 c 2
 263.5 635 l 1
 256 635 l 1
 182 635 l 1
 174.5 635 l 1
 174.5 642.5 l 2
 174.5 707.177054889 219.362216971 750 308 750 c 0
 396.520490061 750 443.5 709.709713155 443.5 648.439226519 c 0
 443.5 610.402878166 420.766796281 590.784132231 405.11286383 576.898321283 c 1
EndSplineSet
EndChar

StartChar: uni00B5
Encoding: 181 181 116
Width: 617
Flags: W
LayerCount: 2
Fore
SplineSet
441.5 500 m 1
 449 500 l 1
 539 500 l 1
 546.5 500 l 1
 546.5 492.5 l 1
 546.5 230.480295567 l 2
 546.5 5.60978929162 539.641302603 0 308 0 c 0
 251.501279453 0 207.327090263 14.5352694126 175.5 34.3981779663 c 1
 175.5 -241.5 l 1
 175.5 -249 l 1
 168 -249 l 1
 78 -249 l 1
 70.5 -249 l 1
 70.5 -241.5 l 1
 70.5 492.5 l 1
 70.5 500 l 1
 78 500 l 1
 168 500 l 1
 175.5 500 l 1
 175.5 492.5 l 1
 175.499985806 222.514591412 l 2
 175.500756924 222.11823698 175.387550348 90 308 90 c 0
 446.37636554 90 441.5 84.252625505 441.5 222.5 c 2
 441.5 492.5 l 1
 441.5 500 l 1
EndSplineSet
EndChar

StartChar: paragraph
Encoding: 182 182 117
Width: 617
Flags: W
LayerCount: 2
Fore
SplineSet
546.5 750 m 1
 546.5 742.5 l 1
 546.5 7.5 l 1
 546.5 0 l 1
 539 0 l 1
 455 0 l 1
 447.5 0 l 1
 447.5 7.5 l 1
 447.5 660 l 1
 399.5 660 l 1
 399.5 7.5 l 1
 399.5 0 l 1
 392 0 l 1
 308 0 l 1
 300.5 0 l 1
 300.5 7.5 l 1
 300.5 323.613861386 l 1
 264 323.613861386 l 2
 70.0106185858 323.613861386 70.5000093758 536.820501537 70.5000093758 536.820501537 c 2
 70.5002210914 536.991072246 70.5404496623 750 264 750 c 2
 539 750 l 1
 546.5 750 l 1
EndSplineSet
EndChar

StartChar: periodcentered
Encoding: 183 183 118
Width: 617
Flags: W
LayerCount: 2
Fore
SplineSet
211.5 382.5 m 0
 211.5 431.809763075 258.515456595 480 308 480 c 0
 357.420582584 480 405.5 431.899386655 405.5 382.5 c 0
 405.5 333.079417416 357.399386655 285 308 285 c 0
 258.499072603 285 211.5 333.208480513 211.5 382.5 c 0
EndSplineSet
EndChar

StartChar: uni00B9
Encoding: 185 185 120
Width: 617
VWidth: 0
Flags: W
LayerCount: 2
Fore
SplineSet
263.457936773 566.439931438 m 1
 260 566.439931438 l 1
 168 566.439931438 l 1
 151.401011932 566.439931438 l 1
 162.371552256 578.405028601 l 1
 317.371552256 747.456871593 l 1
 319.611239205 750 l 1
 323 750 l 1
 410 750 l 1
 417.5 750 l 1
 417.5 742.5 l 1
 417.5 382.5 l 1
 417.5 375 l 1
 410 375 l 1
 336 375 l 1
 328.5 375 l 1
 328.5 382.5 l 1
 328.5 639.600650545 l 1
 265.703461866 568.965746617 l 1
 263.457936773 566.439931438 l 1
EndSplineSet
EndChar

StartChar: ordmasculine
Encoding: 186 186 121
Width: 617
VWidth: 0
Flags: W
LayerCount: 2
Fore
SplineSet
109.5 302.5 m 1
 117 302.5 l 1
 500 302.5 l 1
 507.5 302.5 l 1
 507.5 295 l 1
 507.5 205 l 1
 507.5 197.5 l 1
 500 197.5 l 1
 117 197.5 l 1
 109.5 197.5 l 1
 109.5 205 l 1
 109.5 295 l 1
 109.5 302.5 l 1
308.015214206 749.999988236 m 2
 308.646291797 749.999102949 507.5 749.436058601 507.5 554.5 c 0
 507.5 361.059180103 311.573667791 360 308 360 c 0
 304.396648104 360 109.5 361.083414504 109.5 554.5 c 0
 109.5 749.967160721 308.015214206 749.999988236 308.015214206 749.999988236 c 2
402.5 562 m 0
 402.5 656.760002342 312.185733815 659.400178401 308.00082873 659.498868532 c 0
 302.859116066 659.376025203 214.5 656.283885797 214.5 562 c 0
 214.5 466.246184074 305.770210461 465.518563568 308.000305286 465.500044735 c 0
 311.326393406 465.527393974 402.5 466.812137562 402.5 562 c 0
EndSplineSet
EndChar

StartChar: guillemotright
Encoding: 187 187 122
Width: 617
Flags: W
LayerCount: 2
Fore
SplineSet
312.990278936 279.401150462 m 1
 82.9902789357 80 l 1
 70.5 68.8673600791 l 1
 70.5 80 l 1
 70.5 182 l 1
 70.5 184.709731763 l 1
 72.2319564439 186.793711874 l 1
 191.247993197 330 l 1
 72.2319564439 468.412576251 l 1
 70.5 470.496556363 l 1
 70.5 478 l 1
 70.5 580 l 1
 70.5 591.132639921 l 1
 82.9902789357 580 l 1
 312.990278936 375 l 1
 315.5 372.763074704 l 1
 315.5 375 l 1
 315.5 285 l 1
 315.5 281.638075759 l 1
 312.990278936 279.401150462 l 1
543.978205335 279.390412525 m 1
 312.978205335 80 l 1
 300.5 68.9262679927 l 1
 300.5 80 l 1
 300.5 182 l 1
 300.5 184.726630696 l 1
 302.251096391 186.81664897 l 1
 422.215525633 330 l 1
 302.251096391 468.366702061 l 1
 300.5 470.456720334 l 1
 300.5 478 l 1
 300.5 580 l 1
 300.5 591.073732007 l 1
 312.978205335 580 l 1
 543.978205335 375 l 1
 546.5 372.762043696 l 1
 546.5 375 l 1
 546.5 285 l 1
 546.5 281.628368829 l 1
 543.978205335 279.390412525 l 1
EndSplineSet
EndChar

StartChar: OE
Encoding: 338 338 123
Width: 617
Flags: W
LayerCount: 2
Fore
SplineSet
300.5 750 m 1
 308 750 l 1
 398 750 l 1
 539 750 l 1
 546.5 750 l 1
 546.5 742.5 l 1
 546.5 666.346153846 l 1
 546.5 660 l 1
 539 660 l 1
 405.5 660 l 1
 405.5 618.15 l 1
 405.5 427.5 l 1
 494 427.5 l 1
 501.5 427.5 l 1
 501.5 420 l 1
 501.5 330 l 1
 501.5 322.5 l 1
 494 322.5 l 1
 405.5 322.5 l 1
 405.5 90 l 1
 539 90 l 1
 546.5 90 l 1
 546.5 83.6538461538 l 1
 546.5 7.5 l 1
 546.5 0 l 1
 539 0 l 1
 398 0 l 1
 308 0 l 1
 300.5 0 l 1
 300.5 7.5 l 1
 300.5 7.5 240.398083669 0 238 0 c 0
 163.472644279 0 70.5 6.35619706968 70.5 375 c 0
 70.5 743.643806011 163.472655606 750 238 750 c 0
 255.655482257 750 282.434832264 749.983368551 300.5 743.519261588 c 1
 300.5 750 l 1
300.5 375 m 0
 300.5 668.818240476 248.874337315 660 238 660 c 0
 225.101933097 660 175.5 668.893697219 175.5 375 c 0
 175.5 81.1073032034 225.105256089 90 238 90 c 0
 256.955271749 90 300.5 80.8804950974 300.5 375 c 0
EndSplineSet
EndChar

StartChar: oe
Encoding: 339 339 124
Width: 617
Flags: W
LayerCount: 2
Fore
SplineSet
361.5 311.186320755 m 1
 361.5 300.5 l 1
 457.497919261 300.5 l 1
 457.415244408 401.733686264 457.887551382 399 404 399 c 0
 361.098685039 399 361.5 399.186250706 361.5 350.214622642 c 2
 361.5 311.186320755 l 1
256.5 249.723076923 m 0
 256.5 404.573518713 257.7341283 399 210 399 c 0
 167.849834762 399 159.5 403.734678168 159.5 249.723076923 c 0
 159.5 94.6066156813 158.938676816 89 210 89 c 0
 256.790835467 89 256.5 94.3897064567 256.5 249.723076923 c 0
539 199.5 m 1
 361.500029319 199.5 l 1
 361.500029319 100.828733201 358.253360389 89 476 89 c 2
 539 89 l 1
 546.5 89 l 1
 546.5 81.5 l 1
 546.5 7.5 l 1
 546.5 0 l 1
 539 0 l 2
 421.568823384 0 356.305905678 10.217656109 322.263129024 19.1126309141 c 1
 299.331587521 -1.5144759888 265.958610437 0 210 0 c 0
 73.9149946864 0 70.5 7.93262361451 70.5 250 c 0
 70.5 492.064710294 73.9148831956 500 210 500 c 0
 261.018761266 500 295.183315656 485.197142564 310.091109875 484.069436185 c 1
 331.90263659 496.412222596 358.17144001 500 404 500 c 0
 537.960402471 500 546.5 492.302962398 546.5 248.770292208 c 2
 546.5 206.81737013 l 1
 546.5 199.5 l 1
 539 199.5 l 1
EndSplineSet
EndChar

StartChar: questiondown
Encoding: 191 191 126
Width: 617
Flags: W
LayerCount: 2
Fore
SplineSet
405.5 494.5 m 0
 405.5 445.079417416 357.399386655 397 308 397 c 0
 258.499072603 397 211.5 445.208480513 211.5 494.5 c 0
 211.5 543.809763075 258.515456595 592 308 592 c 0
 357.420582584 592 405.5 543.899386655 405.5 494.5 c 0
70.5 -52.5 m 0
 70.5 108.672474646 145.287489647 130.686846106 256.5 133.346338404 c 1
 256.5 252 l 1
 256.5 259.5 l 1
 264 259.5 l 1
 354 259.5 l 1
 361.5 259.5 l 1
 361.5 252 l 1
 361.5 37 l 1
 361.5 29.5 l 1
 354 29.5 l 1
 308 29.5 l 1
 303 29.5 l 2
 215.455913907 29.5 175.5 30.1039804577 175.5 -52.5 c 0
 175.5 -144.517857414 217.269280528 -143 308 -143 c 0
 398.773455419 -143 441.5 -144.45337111 441.5 -52.5 c 2
 441.5 -45 l 1
 449 -45 l 1
 539 -45 l 1
 546.5 -45 l 1
 546.5 -52.5 l 2
 546.5 -245.999339864 447.82032076 -248 308 -248 c 0
 168.153496383 -248 70.5 -245.962656536 70.5 -52.5 c 0
EndSplineSet
EndChar

StartChar: AE
Encoding: 198 198 133
Width: 617
Flags: W
LayerCount: 2
Fore
SplineSet
300.5 197.5 m 1
 225.890590675 197.5 l 1
 177.286402541 5.72282864857 l 1
 175.890590675 5.06261699229e-14 l 1
 170 0 l 1
 78 0 l 1
 68.4623319584 0 l 1
 70.7115289623 9.0855585127 l 1
 252.711528962 744.268668972 l 1
 254.102331958 750 l 1
 260 750 l 1
 539 750 l 1
 546.5 750 l 1
 546.5 742.5 l 1
 546.5 666.346153846 l 1
 546.5 660 l 1
 539 660 l 1
 405.5 660 l 1
 405.5 427.5 l 1
 494 427.5 l 1
 501.5 427.5 l 1
 501.5 420 l 1
 501.5 330 l 1
 501.5 322.5 l 1
 494 322.5 l 1
 405.5 322.5 l 1
 405.5 90 l 1
 539 90 l 1
 546.5 90 l 1
 546.5 83.6538461538 l 1
 546.5 7.5 l 1
 546.5 0 l 1
 539 0 l 1
 308 0 l 1
 300.5 0 l 1
 300.5 7.5 l 1
 300.5 197.5 l 1
251.562593081 302.5 m 1
 300.5 302.5 l 1
 300.5 501.957006988 l 1
 251.562593081 302.5 l 1
EndSplineSet
EndChar

StartChar: Ccedilla
Encoding: 199 199 134
Width: 617
Flags: W
LayerCount: 2
Fore
SplineSet
175.5 375 m 0
 175.5 154.121600263 224.73973441 90 308 90 c 2
 310 90 l 2
 358.876341265 90 441.5 91.6907074296 441.5 152.5 c 2
 441.5 160 l 1
 449 160 l 1
 539 160 l 1
 546.5 160 l 1
 546.5 152.5 l 2
 546.5 27.6676326317 445.290177658 5.01584504257 361.5 1.30316890084 c 1
 361.5 -24.032145865 l 1
 389.547065257 -24.5741159641 456.5 -33.9639912503 456.5 -136.5 c 0
 456.5 -249.130385274 375.159425545 -250 308 -250 c 2
 198 -250 l 1
 190.5 -250 l 1
 190.5 -242.5 l 1
 190.5 -180.5 l 1
 190.5 -173 l 1
 198 -173 l 1
 308 -173 l 2
 350.415589738 -173 368.5 -162.169507334 368.5 -136.5 c 0
 368.5 -110.500020371 355.661294987 -102 308 -102 c 2
 264 -102 l 1
 256.5 -102 l 1
 256.5 -94.5 l 1
 256.5 5.17957843946 l 1
 140.082940659 26.6919447616 70.5 130.132380409 70.5 375.051126341 c 0
 70.5 655.708613041 162.499647613 750 308 750 c 0
 396.576486261 750 546.5 750 546.5 597.5 c 2
 546.5 590 l 1
 539 590 l 1
 449 590 l 1
 441.5 590 l 1
 441.5 597.5 l 2
 441.5 658.30937505 358.877663181 660 310 660 c 2
 308 660 l 2
 224.739762975 660 175.5 595.878388506 175.5 375 c 0
EndSplineSet
EndChar

StartChar: Eth
Encoding: 208 208 143
Width: 617
VWidth: 975
Flags: W
LayerCount: 2
Fore
SplineSet
70.5 750 m 1
 78 750 l 1
 308 750 l 2
 547.599514065 750 546.500038815 375 546.500038815 375 c 1
 546.500038815 375 547.601639751 5.68434188608e-14 308 0 c 2
 78 0 l 1
 70.5 0 l 1
 70.5 7.5 l 1
 70.5 742.5 l 1
 70.5 750 l 1
175.5 322.5 m 1
 175.5 90 l 1
 308 90 l 2
 436.906537699 90 441.465414438 368.446489336 441.499922195 375 c 0
 441.457596961 383.038159813 436.5595553 660 308 660 c 2
 175.5 660 l 1
 175.5 427.5 l 1
 354 427.5 l 1
 361.5 427.5 l 1
 361.5 420 l 1
 361.5 330 l 1
 361.5 322.5 l 1
 354 322.5 l 1
 175.5 322.5 l 1
EndSplineSet
EndChar

StartChar: multiply
Encoding: 215 215 150
Width: 617
Flags: W
LayerCount: 2
Fore
SplineSet
382.498928963 455 m 1
 521.35768936 313.248348761 l 1
 526.634006516 307.862108331 l 1
 521.219799639 302.614492436 l 1
 456.219799639 239.614492436 l 1
 450.806178687 234.367444435 l 1
 445.587388191 239.808311122 l 1
 309.943312636 381.224474999 l 1
 171.35768936 239.751651239 l 1
 166.096544969 234.380899673 l 1
 160.738620516 239.655106556 l 1
 96.7386205161 302.655106556 l 1
 91.4067263885 307.903689838 l 1
 96.6423106397 313.248348761 l 1
 235.501071037 455 l 1
 96.6423106397 591.503302478 l 1
 91.4477896738 596.751090533 l 1
 96.6966991411 602 l 1
 159.696699141 665 l 1
 165.036448374 670.339749233 l 1
 170.339499593 665 l 1
 309.943898752 528.736876261 l 1
 446.60575379 665 l 1
 451.865869046 670.311205587 l 1
 457.261379484 665 l 1
 521.261379484 602 l 1
 526.593273612 596.751416718 l 1
 521.35768936 591.503302478 l 1
 382.498928963 455 l 1
EndSplineSet
EndChar

StartChar: Oslash
Encoding: 216 216 151
Width: 617
Flags: W
LayerCount: 2
Fore
SplineSet
218.197503511 -5.59552404411e-14 m 1
 213 0 l 1
 117 0 l 1
 105.945613251 0 l 1
 110.030976588 10.0703634073 l 1
 143.520703718 92.6220717406 l 1
 101.391742147 151.561871054 70.5 243.092105081 70.5 375 c 0
 70.5 744.652009486 165.004461767 750 308 750 c 0
 334.821721668 750 364.86854433 742.203424277 391.642871743 729.14569768 c 1
 396.884875265 744.871708245 l 1
 398.59430585 750 l 1
 404 750 l 1
 500 750 l 1
 510.893816667 750 l 1
 507.006160826 740.023028552 l 1
 474.459695236 656.498361956 l 1
 517.627866196 597.394064873 546.5 506.831420799 546.5 375 c 0
 546.5 5.3139851494 450.972556988 0 308 0 c 0
 281.001658471 0 253.260303675 7.59871084831 226.064278524 20.9780666996 c 1
 220.022468832 4.86657418809 l 1
 218.197503511 -5.59552404411e-14 l 1
357.774291116 657.760194424 m 1
 342.897263528 659.974037815 326.367520725 660 308 660 c 0
 222.034572027 660 175.5 666.677963139 175.5 382.5 c 0
 175.5 306.166876392 179.598769317 249.470853392 186.262159106 209.405110202 c 1
 357.774291116 657.760194424 l 1
441.5 367.5 m 0
 441.5 443.86442723 436.773572115 500.300676923 429.815617757 540.666905406 c 1
 259.205153931 92.2317518543 l 1
 274.0704369 90.0023540337 289.61623584 90 308 90 c 0
 394.001442729 90 441.5 83.3760107697 441.5 367.5 c 0
EndSplineSet
EndChar

StartChar: Thorn
Encoding: 222 222 157
Width: 617
VWidth: 975
Flags: W
LayerCount: 2
Fore
SplineSet
308 661.221618954 m 2
 544.762806814 661.221618954 546.500150699 452.173233602 546.500150699 451.868085249 c 0
 546.500150699 450.484787259 544.149120083 243.5 308 243.5 c 2
 175.5 243.5 l 1
 175.5 7.5 l 1
 175.5 0 l 1
 168 0 l 1
 78 0 l 1
 70.5 0 l 1
 70.5 7.5 l 1
 70.5 742.5 l 1
 70.5 750 l 1
 78 750 l 1
 168 750 l 1
 175.5 750 l 1
 175.5 742.5 l 1
 175.5 661.221618954 l 1
 308 661.221618954 l 2
308 562.5 m 2
 175.5 562.5 l 1
 175.5 348.5 l 1
 308 348.5 l 2
 438.924179928 348.5 441.404164999 451.21156603 441.498902214 455.000761774 c 0
 441.380043347 459.810143696 438.314573031 562.5 308 562.5 c 2
EndSplineSet
EndChar

StartChar: germandbls
Encoding: 223 223 158
Width: 617
Flags: W
LayerCount: 2
Fore
SplineSet
300.5 90 m 1
 308 90 l 2
 395.013451841 90 441.5 128.637415883 441.5 214.5 c 0
 441.5 300.362730162 395.013377923 339 308 339 c 2
 300.5 339 l 1
 300.5 346.5 l 1
 300.5 436.5 l 1
 300.5 444 l 1
 308 444 l 2
 375.05741788 444 419.5 479.123699272 419.5 544.5 c 0
 419.5 609.87638348 375.057403367 645 308 645 c 0
 241.002804794 645 197.5 609.96139535 197.5 544.5 c 2
 197.5 7.5 l 1
 197.5 0 l 1
 190 0 l 1
 100 0 l 1
 92.5 0 l 1
 92.5 7.5 l 1
 92.5 544.5 l 2
 92.5 668.176969555 164.336403706 750 308 750 c 0
 451.663269569 750 523.5 668.177283927 523.5 544.5 c 0
 523.5 464.546504817 484.191687521 422.500359815 459.111382927 394.788889139 c 1
 486.785998627 367.928315196 546.5 334.387872304 546.5 223.347184987 c 0
 546.5 102.661952123 452.041212378 0 308 0 c 2
 300.5 0 l 1
 300.5 7.5 l 1
 300.5 83.6538461538 l 1
 300.5 90 l 1
EndSplineSet
EndChar

StartChar: ae
Encoding: 230 230 165
Width: 617
Flags: W
LayerCount: 2
Fore
SplineSet
215 300.5 m 2
 256.5 300.5 l 1
 256.5 333.488207547 l 1
 256.5 337.205188679 l 2
 256.5 393.270014146 258.036940399 399 215 399 c 0
 175.434234451 399 156.087663271 391.171535395 118.647332164 361.613379258 c 2
 111.810110762 356.215572888 l 1
 107.488176434 363.778957962 l 1
 71.4881764341 426.778957962 l 1
 68.3692082427 432.237152297 l 1
 73.1986170025 436.261659597 l 2
 108.443287449 465.632218302 137.402628733 500 215 500 c 0
 249.912298327 500 272.377355397 489.215948957 291.270905919 473.874666356 c 1
 311.128354817 501.045277451 344.871838886 500 404 500 c 0
 537.960402471 500 546.5 492.302962398 546.5 248.770292208 c 2
 546.5 206.81737013 l 1
 546.5 199.5 l 1
 539 199.5 l 1
 361.500171286 199.5 l 1
 361.534324017 99.0470176256 359.107607147 89 476 89 c 2
 539 89 l 1
 546.5 89 l 1
 546.5 81.5 l 1
 546.5 7.5 l 1
 546.5 0 l 1
 539 0 l 1
 215 0 l 2
 102.081200984 0 70.5 32.029042443 70.5 143.908279221 c 0
 70.5 269.062583342 101.816893724 300.5 215 300.5 c 2
215 199.5 m 2
 176.302566498 199.5 159.5 194.673666524 159.5 143.781779661 c 0
 159.5 92.9868337812 176.11483321 89 215 89 c 2
 256.5 89 l 1
 256.5 199.5 l 1
 215 199.5 l 2
361.5 350.214622642 m 2
 361.5 300.5 l 1
 457.497919261 300.5 l 1
 457.415244408 401.733686264 457.887551382 399 404 399 c 0
 361.098685039 399 361.5 399.186250706 361.5 350.214622642 c 2
EndSplineSet
EndChar

StartChar: ccedilla
Encoding: 231 231 166
Width: 617
Flags: W
LayerCount: 2
Fore
SplineSet
175.5 250 m 0
 175.5 158.415015592 223.025004321 90 308 90 c 2
 310 90 l 2
 358.876341265 90 441.5 91.6907074296 441.5 152.5 c 2
 441.5 160 l 1
 449 160 l 1
 539 160 l 1
 546.5 160 l 1
 546.5 152.5 l 2
 546.5 27.6676326317 445.290177658 5.01584504257 361.5 1.30316890084 c 1
 361.5 -24.032145865 l 1
 389.547065257 -24.5741159641 456.5 -33.9639912503 456.5 -136.5 c 0
 456.5 -249.130385274 375.159425545 -250 308 -250 c 2
 198 -250 l 1
 190.5 -250 l 1
 190.5 -242.5 l 1
 190.5 -180.5 l 1
 190.5 -173 l 1
 198 -173 l 1
 308 -173 l 2
 350.415589738 -173 368.5 -162.169507334 368.5 -136.5 c 0
 368.5 -110.500020371 355.661294987 -102 308 -102 c 2
 264 -102 l 1
 256.5 -102 l 1
 256.5 -94.5 l 1
 256.5 4.16631891801 l 1
 141.069687699 24.9740673744 70.5 112.396982874 70.5 250.061169404 c 0
 70.5 408.646736895 163.873471444 500 308 500 c 0
 396.576486261 500 546.5 500 546.5 347.5 c 2
 546.5 340 l 1
 539 340 l 1
 449 340 l 1
 441.5 340 l 1
 441.5 347.5 l 2
 441.5 408.30937505 358.877663181 410 310 410 c 2
 308 410 l 2
 223.012728505 410 175.5 341.585134078 175.5 250 c 0
EndSplineSet
EndChar

StartChar: eth
Encoding: 240 240 175
Width: 617
Flags: W
LayerCount: 2
Fore
SplineSet
308 468.123856577 m 0
 358.142194017 468.123856577 411.066270034 447.946935447 440.976988098 427.117000486 c 1
 435.785605095 501.259018713 398.670566551 553.565323729 357.010766238 591.25741403 c 1
 223.761478267 514.011449989 l 1
 212.5 507.483056791 l 1
 212.5 520.5 l 1
 212.5 609.5 l 1
 212.5 613.937271754 l 1
 216.389164053 616.073573135 l 1
 275.29931123 648.432668064 l 1
 240.873713555 665.922748667 218.560894334 671.127982809 218.163888249 671.228226239 c 2
 207.713319324 673.866978906 l 1
 213.819685569 682.748966172 l 1
 257.819685569 746.748966172 l 1
 260.054771325 750 l 1
 264 750 l 2
 273.318992232 750 315.756846867 731.998466883 364.582488288 697.316093158 c 1
 461.463792313 749.114018082 l 1
 468.347220719 752.794266933 l 1
 471.749859929 745.769463403 l 1
 502.749859929 681.769463403 l 1
 505.776777704 675.520342834 l 1
 499.779032691 672.021658243 l 1
 436.090441048 634.869979785 l 1
 494.738828551 574.984570863 546.5 488.762995792 546.5 373.671310911 c 2
 546.5 233.971971145 l 2
 546.5 105.265653439 452.245062981 0 308 0 c 0
 164.130452067 0 70.5 91.3887838634 70.5 233.574299271 c 0
 70.5 375.729268538 164.085029138 468.123856577 308 468.123856577 c 0
175.5 224.5 m 0
 175.5 138.057314257 221.80582694 90 308 90 c 0
 394.245303978 90 441.5 138.132898342 441.5 224.5 c 0
 441.5 310.917637254 394.170607109 360 308 360 c 0
 221.877173005 360 175.5 310.990833051 175.5 224.5 c 0
EndSplineSet
EndChar

StartChar: divide
Encoding: 247 247 182
Width: 617
Flags: W
LayerCount: 2
Fore
SplineSet
239.5 281 m 0
 239.5 329.033124125 259.678721689 350.5 308 350.5 c 0
 356.208772279 350.5 377.5 329.210381981 377.5 281 c 0
 377.5 232.680459919 356.034650678 212.5 308 212.5 c 0
 259.85536828 212.5 239.5 232.853807848 239.5 281 c 0
238.5 628 m 0
 238.5 676.208772279 259.789618019 697.5 308 697.5 c 0
 356.319540081 697.5 376.5 676.034650678 376.5 628 c 0
 376.5 579.966875875 356.321278311 558.5 308 558.5 c 0
 259.791227721 558.5 238.5 579.789618019 238.5 628 c 0
70.5 507.5 m 1
 78 507.5 l 1
 539 507.5 l 1
 546.5 507.5 l 1
 546.5 500 l 1
 546.5 410 l 1
 546.5 402.5 l 1
 539 402.5 l 1
 78 402.5 l 1
 70.5 402.5 l 1
 70.5 410 l 1
 70.5 500 l 1
 70.5 507.5 l 1
EndSplineSet
EndChar

StartChar: oslash
Encoding: 248 248 183
Width: 617
Flags: W
LayerCount: 2
Fore
SplineSet
311.08496743 410 m 1
 308 410 l 2
 219.416094223 410 175.5 413.907150369 175.5 257.5 c 0
 175.5 185.056093041 185.610944527 147.696896833 202.948522745 128.472359525 c 1
 311.08496743 410 l 1
455.653022482 485.783831307 m 1
 514.485455714 459.991772919 546.5 396.10608012 546.5 251.366945639 c 0
 546.5 3.32688058357 449.100704265 0 308 0 c 2
 265.192640014 0 l 1
 220.020158138 -120.13957946 l 1
 218.192640014 -125 l 1
 213 -125 l 1
 117 -125 l 1
 106.040246955 -125 l 1
 110.009021514 -114.784080301 l 1
 161.346977518 14.216168693 l 1
 102.514544286 40.0082270814 70.5 103.89391988 70.5 248.633054361 c 0
 70.5 496.636620011 166.87406298 500 308 500 c 2
 350.84604705 500 l 1
 396.998465344 620.188589308 l 1
 398.84604705 625 l 1
 404 625 l 1
 500 625 l 1
 510.959753045 625 l 1
 506.990978486 614.784080301 l 1
 455.653022482 485.783831307 l 1
414.051477255 371.527640475 m 1
 305.91503257 90 l 1
 308 90 l 2
 396.615802862 90 441.5 86.1649664095 441.5 242.5 c 0
 441.5 314.943906959 431.389055473 352.303103167 414.051477255 371.527640475 c 1
EndSplineSet
EndChar

StartChar: thorn
Encoding: 254 254 189
Width: 617
VWidth: 0
Flags: W
LayerCount: 2
Fore
SplineSet
308 40.6875 m 0
 230.137295351 40.6875 193.259177574 54.4319926207 175.5 68.2263069498 c 1
 175.5 -242.5 l 1
 175.5 -250 l 1
 168 -250 l 1
 78 -250 l 1
 70.5 -250 l 1
 70.5 -242.5 l 1
 70.5 742.5 l 1
 70.5 750 l 1
 78 750 l 1
 168 750 l 1
 175.5 750 l 1
 175.5 742.5 l 1
 175.5 431.77369305 l 1
 193.259164127 445.567996935 230.137314572 459.3125 308 459.3125 c 0
 544.762806603 459.3125 546.498204967 250.304860057 546.500149883 250 c 0
 546.491478045 248.640713462 544.177801237 40.6875 308 40.6875 c 0
175.5 319.782362483 m 1
 175.5 180.217637517 l 1
 175.5 180.217637517 178.787897315 142.5 308 142.5 c 0
 438.888715551 142.5 441.403488508 246.13851697 441.49892104 250 c 0
 441.380027655 254.810778651 438.314578537 357.5 308 357.5 c 0
 177.942072267 357.5 175.5 319.782362483 175.5 319.782362483 c 1
EndSplineSet
EndChar

StartChar: .notdef
Encoding: 65540 -1 191
Width: 617
Flags: W
LayerCount: 2
Fore
SplineSet
111.5 0 m 1
 111.5 7.5 l 1
 111.5 673.5 l 1
 111.5 681 l 1
 119 681 l 1
 498 681 l 1
 505.5 681 l 1
 505.5 673.5 l 1
 505.5 7.5 l 1
 505.5 0 l 1
 498 0 l 1
 119 0 l 1
 111.5 0 l 1
216.5 606 m 1
 216.5 75 l 1
 400.5 75 l 1
 400.5 606 l 1
 216.5 606 l 1
EndSplineSet
EndChar

StartChar: dotlessi
Encoding: 305 305 192
Width: 617
Flags: W
LayerCount: 2
Fore
SplineSet
115.5 500 m 1
 123 500 l 1
 354 500 l 1
 361.5 500 l 1
 361.5 492.5 l 1
 361.5 90 l 1
 539 90 l 1
 546.5 90 l 1
 546.5 83.6538461538 l 1
 546.5 7.5 l 1
 546.5 0 l 1
 539 0 l 1
 78 0 l 1
 70.5 0 l 1
 70.5 7.5 l 1
 70.5 83.6538461538 l 1
 70.5 90 l 1
 78 90 l 1
 256.5 90 l 1
 256.5 410 l 1
 123 410 l 1
 115.5 410 l 1
 115.5 416.346153846 l 1
 115.5 492.5 l 1
 115.5 500 l 1
EndSplineSet
EndChar

StartChar: dieresis
Encoding: 168 168 193
Width: 617
Flags: W
LayerCount: 2
Fore
SplineSet
364.5 628 m 0
 364.5 676.208772279 385.789618019 697.5 434 697.5 c 0
 482.319540081 697.5 502.5 676.034650678 502.5 628 c 0
 502.5 579.966875875 482.321278311 558.5 434 558.5 c 0
 385.791227721 558.5 364.5 579.789618019 364.5 628 c 0
114.5 628 m 0
 114.5 676.208772279 135.789618019 697.5 184 697.5 c 0
 232.319540081 697.5 252.5 676.034650678 252.5 628 c 0
 252.5 579.966875875 232.321278311 558.5 184 558.5 c 0
 135.791227721 558.5 114.5 579.789618019 114.5 628 c 0
EndSplineSet
EndChar

StartChar: acute
Encoding: 180 180 194
Width: 617
Flags: W
LayerCount: 2
Fore
SplineSet
284 530 m 2
 282 530 l 2
 264.89930053 530 256.5 543.922736955 256.5 558.666584443 c 0
 258.752769792 609.353904757 323.629108681 663.67793537 380.843966348 716.946940784 c 1
 380.843966348 716.946940784 413.643460404 750 448 750 c 2
 449 750 l 2
 471.762957698 750 489.5 729.328692287 489.5 707.375034703 c 0
 488.342643667 672.654344699 453.145390972 641.043347727 453.131765228 641.030464476 c 0
 395.467108826 587.34268093 332.998165304 530 284 530 c 2
EndSplineSet
EndChar

StartChar: cedilla
Encoding: 184 184 195
Width: 617
Flags: W
LayerCount: 2
Fore
SplineSet
361.5 90 m 1
 361.5 82.5 l 1
 361.5 -24.032145865 l 1
 389.547065257 -24.5741159641 456.5 -33.9639912503 456.5 -136.5 c 0
 456.5 -249.130385274 375.159425545 -250 308 -250 c 2
 198 -250 l 1
 190.5 -250 l 1
 190.5 -242.5 l 1
 190.5 -180.5 l 1
 190.5 -173 l 1
 198 -173 l 1
 308 -173 l 2
 350.415589738 -173 368.5 -162.169507334 368.5 -136.5 c 0
 368.5 -110.500020371 355.661294987 -102 308 -102 c 2
 264 -102 l 1
 256.5 -102 l 1
 256.5 -94.5 l 1
 256.5 82.5 l 1
 256.5 90 l 1
 264 90 l 1
 354 90 l 1
 361.5 90 l 1
EndSplineSet
EndChar

StartChar: uniE0A0
Encoding: 57504 57504 196
Width: 617
Flags: W
LayerCount: 2
Fore
SplineSet
263 -408 m 1
 72 -408 l 1
 79.5 -408 l 1
 79.5 -408 l 1
 79.5 -123 l 2
 79.5 -49.2565123332 94.766040903 10.8576804068 126.80705673 58.48542913 c 0
 148.550836225 91.2687025372 182.377496049 122.5256876 227.823426773 153.46984236 c 2
 315.852207776 206.248761506 l 2
 349.952135303 228.65728531 373.90221132 255.617078752 388.248805614 285.266706961 c 0
 402.518938006 314.758313904 409.5 354.649406411 409.5 405 c 2
 409.5 585 l 1
 296 585 l 1
 279.885576074 585 l 1
 290.26169296 600 l 1
 460.26169296 802 l 1
 466 808.818458953 l 1
 471.73830704 802 l 1
 641.73830704 600 l 1
 652.114423926 585 l 1
 636 585 l 1
 521.5 585 l 1
 521.5 372 l 2
 521.5 295.400475681 511.556704425 236.258927002 489.640484271 194.513745758 c 0
 468.072652631 155.887756283 437.152190254 122.969258517 394.14382954 96.0108613727 c 2
 350.14382954 67.0108613727 l 2
 314.809228312 42.6165694806 290.741334269 17.4628278635 277.527931671 -6.97181081586 c 0
 262.510691237 -34.1227152969 255.5 -73.028364353 255.5 -123 c 2
 255.5 -408 l 1
 255.5 -408 l 1
 263 -408 l 1
252.097008354 286.717920524 m 1
 91.0970083541 188 l 1
 79.5 180.436733682 l 1
 79.5 188 l 1
 79.5 961 l 1
 79.5 961 l 1
 102 961 l 1
 233 961 l 1
 255.5 961 l 1
 255.5 961 l 1
 255.5 293 l 1
 255.5 288.937262901 l 1
 252.097008354 286.717920524 l 1
EndSplineSet
EndChar

StartChar: uniE0A1
Encoding: 57505 57505 197
Width: 617
Flags: W
LayerCount: 2
Fore
SplineSet
415.5 385.5 m 1
 415.5 378 l 1
 415.5 300 l 1
 415.5 292.5 l 1
 408 292.5 l 1
 113 292.5 l 1
 105.5 292.5 l 1
 105.5 299.895736793 l 1
 105.5 824.5 l 1
 105.5 832 l 1
 113 832 l 1
 203 832 l 1
 210.5 832 l 1
 210.5 824.5 l 1
 210.5 385.5 l 1
 408 385.5 l 1
 415.5 385.5 l 1
403.5 267 m 1
 411 267 l 1
 504 267 l 1
 511.5 267 l 1
 511.5 259.5 l 1
 511.5 -273.5 l 1
 511.5 -281 l 1
 504 -281 l 1
 406 -281 l 1
 400.970982351 -281 l 1
 399.061596533 -276.347552868 l 1
 273.568358719 29.4317449063 l 1
 282.491437182 -157.141713874 l 1
 282.5 -157.320754614 l 1
 282.5 -157.5 l 1
 282.5 -273.5 l 1
 282.5 -281 l 1
 275 -281 l 1
 183 -281 l 1
 175.5 -281 l 1
 175.5 -273.5 l 1
 175.5 259.5 l 1
 175.5 267 l 1
 183 267 l 1
 279 267 l 1
 284.007767152 267 l 1
 285.927204187 262.374689922 l 1
 413.474788598 -44.9795586223 l 1
 403.508422106 165.144668242 l 1
 403.5 165.32223431 l 1
 403.5 165.5 l 1
 403.5 259.5 l 1
 403.5 267 l 1
EndSplineSet
EndChar

StartChar: uniE0A2
Encoding: 57506 57506 198
Width: 617
Flags: W
LayerCount: 2
Fore
SplineSet
463 -192 m 2
 154 -192 l 2
 95.4526741672 -192 64.5 -160.998422441 64.5 -101.5 c 2
 64.5 299.485673352 l 2
 64.5 358.018666061 89.2525943939 391.012897473 135.5 394.088433683 c 1
 135.5 564.843839542 l 2
 135.5 619.39417539 152.119435677 665.673147678 186.457831171 702.489202862 c 0
 218.743270863 737.290274837 259.965416709 756 309 756 c 0
 358.029447814 756 399.269251498 737.27673775 431.528656052 702.503729533 c 0
 465.891327547 665.661646731 482.5 619.398621658 482.5 564.843839542 c 2
 482.5 394.087934165 l 1
 529.858593996 390.931532216 552.5 357.17240087 552.5 299.485673352 c 2
 552.5 -101.5 l 2
 552.5 -160.941652823 521.606638519 -192 463 -192 c 2
365.143483929 637.553515754 m 0
 350.398464807 655.483939822 332.845546829 664 309 664 c 0
 285.075336287 664 266.499411845 655.3597545 251.856516071 637.553515754 c 0
 237.143812218 619.662388106 229.5 596.242333886 229.5 564.285326087 c 2
 229.5 395.5 l 1
 387.5 395.5 l 1
 387.5 564.285326087 l 2
 387.5 596.242258181 379.856124627 619.662464905 365.143483929 637.553515754 c 0
283.5 -37 m 1
 333.5 -37 l 1
 333.5 142.130952381 l 1
 333.5 146.503998335 l 1
 337.444251327 148.577258648 l 2
 361.473150528 161.207833869 373.5 178.952928979 373.5 205.583333333 c 0
 373.5 223.363795162 367.252214742 238.911631551 354.696699141 251.168206304 c 0
 341.857776587 263.701440226 326.879573614 270.5 309 270.5 c 0
 291.117708926 270.5 276.142501991 263.701712172 263.303300859 251.168206304 c 0
 250.581247583 238.749059058 243.5 223.091811007 243.5 205.583333333 c 0
 243.5 178.952772082 255.526877965 161.207818892 279.555748673 148.577258648 c 2
 283.5 146.503998335 l 1
 283.5 142.130952381 l 1
 283.5 -37 l 1
EndSplineSet
EndChar

StartChar: uniE0B0
Encoding: 57520 57520 199
Width: 617
Flags: W
LayerCount: 2
Fore
SplineSet
5.57995330824 961 m 1
 622.579953308 279.011399114 l 1
 627.07745754 274.003643187 l 1
 622.583575276 268.992636708 l 1
 5.58357527567 -414 l 1
 -7.5 -428.589140664 l 1
 -7.5 -414 l 1
 -7.5 961 l 1
 -7.5 975.56390263 l 1
 5.57995330824 961 l 1
EndSplineSet
EndChar

StartChar: uniE0B1
Encoding: 57521 57521 200
Width: 617
Flags: W
LayerCount: 2
Fore
SplineSet
-38.3033008589 880 m 1
 17.6966991411 936 l 1
 23.294888091 941.59818895 l 1
 28.5822470182 936 l 1
 622.582247018 279.008844001 l 1
 627.076587406 274 l 1
 622.582247018 268.991155999 l 1
 28.5822470182 -388 l 1
 23.2478098064 -393.697794347 l 1
 17.6499767636 -388 l 1
 -38.3500232364 -331 l 1
 -43.2814979696 -325.980463218 l 1
 -38.5861694153 -320.991061742 l 1
 498.934188479 274.004130617 l 1
 -38.5902748113 870.000234496 l 1
 -43.3191821588 874.9841187 l 1
 -38.3033008589 880 l 1
EndSplineSet
EndChar

StartChar: uniE0B2
Encoding: 57522 57522 201
Width: 617
Flags: W
LayerCount: 2
Fore
SplineSet
610.412389744 -414 m 1
 -5.58761025553 268.997139655 l 1
 -10.0701744398 274.003639913 l 1
 -5.58399218035 279.006898374 l 1
 610.41600782 961 l 1
 623.5 975.592049721 l 1
 623.5 961 l 1
 623.5 -414 l 1
 623.5 -428.617330935 l 1
 610.412389744 -414 l 1
EndSplineSet
EndChar

StartChar: uniE0B3
Encoding: 57523 57523 202
Width: 617
Flags: W
LayerCount: 2
Fore
SplineSet
118.065811521 274.004130617 m 1
 655.586169415 -320.991061742 l 1
 660.28149797 -325.980463218 l 1
 655.350023236 -331 l 1
 599.350023236 -388 l 1
 593.752190194 -393.697794347 l 1
 588.417752982 -388 l 1
 -5.58224701816 268.991155999 l 1
 -10.0765874059 274 l 1
 -5.58224701816 279.008844001 l 1
 588.417752982 936 l 1
 593.705111909 941.59818895 l 1
 599.303300859 936 l 1
 655.303300859 880 l 1
 660.319182159 874.9841187 l 1
 655.590274811 870.000234496 l 1
 118.065811521 274.004130617 l 1
EndSplineSet
EndChar

StartChar: block
Encoding: 9608 9608 203
Width: 617
VWidth: 0
Flags: W
LayerCount: 2
Fore
SplineSet
15 875 m 1
 602 875 l 1
 624.5 875 l 1
 624.5 875 l 1
 624.5 -375 l 1
 624.5 -375 l 1
 632 -375 l 1
 -15 -375 l 1
 -7.5 -375 l 1
 -7.5 -375 l 1
 -7.5 875 l 1
 -7.5 875 l 1
 15 875 l 1
EndSplineSet
EndChar

StartChar: brokenbar
Encoding: 166 166 204
Width: 617
VWidth: 0
Flags: W
LayerCount: 2
Fore
SplineSet
256.5 750 m 1
 264 750 l 1
 354 750 l 1
 361.5 750 l 1
 361.5 742.5 l 1
 361.5 412.5 l 1
 361.5 405 l 1
 354 405 l 1
 264 405 l 1
 256.5 405 l 1
 256.5 412.5 l 1
 256.5 742.5 l 1
 256.5 750 l 1
361.5 255 m 1
 361.5 247.5 l 1
 361.5 -82.5 l 1
 361.5 -90 l 1
 354 -90 l 1
 264 -90 l 1
 256.5 -90 l 1
 256.5 -82.5 l 1
 256.5 247.5 l 1
 256.5 255 l 1
 264 255 l 1
 354 255 l 1
 361.5 255 l 1
EndSplineSet
EndChar

StartChar: bullet
Encoding: 8226 8226 205
Width: 617
Flags: W
LayerCount: 2
Fore
SplineSet
307.999945402 512.00001075 m 2
 308.733919538 512.00001075 498.5 511.37477514 498.5 330 c 0
 498.5 139.613159374 307.999945398 139.499989217 307.999945398 139.499989217 c 2
 307.214803867 139.501167509 118.5 140.209821145 118.5 330 c 0
 118.5 511.891321554 307.999945402 512.00001075 307.999945402 512.00001075 c 2
EndSplineSet
EndChar

StartChar: uni2219
Encoding: 8729 8729 206
Width: 617
Flags: W
LayerCount: 2
Fore
SplineSet
307.999945402 512.00001075 m 2
 308.733919538 512.00001075 498.5 511.37477514 498.5 330 c 0
 498.5 139.613159374 307.999945398 139.499989217 307.999945398 139.499989217 c 2
 307.214803867 139.501167509 118.5 140.209821145 118.5 330 c 0
 118.5 511.891321554 307.999945402 512.00001075 307.999945402 512.00001075 c 2
EndSplineSet
EndChar

StartChar: endash
Encoding: 8211 8211 207
Width: 617
Flags: W
LayerCount: 2
Fore
SplineSet
70.5 390 m 1
 78 390 l 1
 539 390 l 1
 546.5 390 l 1
 546.5 382.5 l 1
 546.5 292.5 l 1
 546.5 285 l 1
 539 285 l 1
 78 285 l 1
 70.5 285 l 1
 70.5 292.5 l 1
 70.5 382.5 l 1
 70.5 390 l 1
EndSplineSet
EndChar

StartChar: emdash
Encoding: 8212 8212 208
Width: 617
Flags: W
LayerCount: 2
Fore
SplineSet
-7.5 390 m 1
 0 390 l 1
 617 390 l 1
 624.5 390 l 1
 624.5 382.5 l 1
 624.5 292.5 l 1
 624.5 285 l 1
 617 285 l 1
 0 285 l 1
 -7.5 285 l 1
 -7.5 292.5 l 1
 -7.5 382.5 l 1
 -7.5 390 l 1
EndSplineSet
EndChar

StartChar: figuredash
Encoding: 8210 8210 209
Width: 617
Flags: W
LayerCount: 2
Fore
SplineSet
70.5 390 m 1
 78 390 l 1
 539 390 l 1
 546.5 390 l 1
 546.5 382.5 l 1
 546.5 292.5 l 1
 546.5 285 l 1
 539 285 l 1
 78 285 l 1
 70.5 285 l 1
 70.5 292.5 l 1
 70.5 382.5 l 1
 70.5 390 l 1
EndSplineSet
EndChar

StartChar: afii00208
Encoding: 8213 8213 210
Width: 617
Flags: W
LayerCount: 2
Fore
SplineSet
-7.5 390 m 1
 0 390 l 1
 617 390 l 1
 624.5 390 l 1
 624.5 382.5 l 1
 624.5 292.5 l 1
 624.5 285 l 1
 617 285 l 1
 0 285 l 1
 -7.5 285 l 1
 -7.5 292.5 l 1
 -7.5 382.5 l 1
 -7.5 390 l 1
EndSplineSet
EndChar

StartChar: uni2011
Encoding: 8209 8209 211
Width: 617
Flags: W
LayerCount: 2
Fore
SplineSet
70.5 390 m 1
 78 390 l 1
 539 390 l 1
 546.5 390 l 1
 546.5 382.5 l 1
 546.5 292.5 l 1
 546.5 285 l 1
 539 285 l 1
 78 285 l 1
 70.5 285 l 1
 70.5 292.5 l 1
 70.5 382.5 l 1
 70.5 390 l 1
EndSplineSet
EndChar

StartChar: uni2010
Encoding: 8208 8208 212
Width: 617
Flags: W
LayerCount: 2
Fore
SplineSet
70.5 390 m 1
 78 390 l 1
 539 390 l 1
 546.5 390 l 1
 546.5 382.5 l 1
 546.5 292.5 l 1
 546.5 285 l 1
 539 285 l 1
 78 285 l 1
 70.5 285 l 1
 70.5 292.5 l 1
 70.5 382.5 l 1
 70.5 390 l 1
EndSplineSet
EndChar

StartChar: uni26A1
Encoding: 9889 9889 213
Width: 617
VWidth: 0
Flags: W
LayerCount: 2
Fore
SplineSet
504.100795586 740.714768122 m 1
 354.471647556 306.940133289 l 1
 537 306.940133289 l 1
 552.098309843 306.940133289 l 1
 542.976447247 295.081434792 l 1
 125.976447247 -247.03123364 l 1
 98.1611526469 -283.718073041 l 1
 112.894406159 -240.099888302 l 1
 261.55036843 193.412540355 l 1
 80 193.412540355 l 1
 64.9016901566 193.412540355 l 1
 74.0235527528 205.263689273 l 1
 491.023552753 747.03123364 l 1
 519.01461292 783.949898129 l 1
 504.100795586 740.714768122 l 1
EndSplineSet
EndChar

StartChar: H18533
Encoding: 9679 9679 214
Width: 617
Flags: W
LayerCount: 2
Fore
SplineSet
308.011624844 624.999993089 m 2
 308.717715205 624.999993089 566.5 624.367366023 566.5 375 c 0
 566.5 125.090169442 307.98827213 125.000002568 307.98827213 125.000002568 c 2
 307.244415605 125.000792428 51.5 125.673826186 51.5 375 c 0
 51.5 624.870315477 308.011624844 624.999993089 308.011624844 624.999993089 c 2
EndSplineSet
EndChar

StartChar: uni25FE
Encoding: 9726 9726 215
Width: 617
VWidth: 0
Flags: W
LayerCount: 2
Fore
SplineSet
151.5 525 m 1
 159 525 l 1
 459 525 l 1
 466.5 525 l 1
 466.5 517.5 l 1
 466.5 217.5 l 1
 466.5 210 l 1
 459 210 l 1
 159 210 l 1
 151.5 210 l 1
 151.5 217.5 l 1
 151.5 517.5 l 1
 151.5 525 l 1
EndSplineSet
EndChar

StartChar: uni25FC
Encoding: 9724 9724 216
Width: 617
VWidth: 0
Flags: W
LayerCount: 2
Fore
SplineSet
51.5 625 m 1
 59 625 l 1
 559 625 l 1
 566.5 625 l 1
 566.5 617.5 l 1
 566.5 117.5 l 1
 566.5 110 l 1
 559 110 l 1
 59 110 l 1
 51.5 110 l 1
 51.5 117.5 l 1
 51.5 617.5 l 1
 51.5 625 l 1
EndSplineSet
EndChar

StartChar: filledbox
Encoding: 9632 9632 217
Width: 617
VWidth: 0
Flags: W
LayerCount: 2
Fore
SplineSet
-7.5 617 m 1
 0 617 l 1
 617 617 l 1
 624.5 617 l 1
 624.5 609.5 l 1
 624.5 7.5 l 1
 624.5 -15 l 1
 617 -15 l 1
 0 -15 l 1
 -7.5 -15 l 1
 -7.5 7.5 l 1
 -7.5 609.5 l 1
 -7.5 617 l 1
EndSplineSet
EndChar

StartChar: H22073
Encoding: 9633 9633 218
Width: 617
VWidth: 0
Flags: W
LayerCount: 2
Fore
SplineSet
549.5 542 m 1
 67.5 542 l 1
 67.5 75 l 1
 549.5 75 l 1
 549.5 542 l 1
-7.5 617 m 1
 0 617 l 1
 617 617 l 1
 624.5 617 l 1
 624.5 609.5 l 1
 624.5 7.5 l 1
 624.5 0 l 1
 617 0 l 1
 0 0 l 1
 -7.5 0 l 1
 -7.5 7.5 l 1
 -7.5 609.5 l 1
 -7.5 617 l 1
EndSplineSet
EndChar

StartChar: uni25FD
Encoding: 9725 9725 219
Width: 617
VWidth: 0
Flags: W
LayerCount: 2
Fore
SplineSet
436.5 495 m 1
 181.5 495 l 1
 181.5 247.5 l 1
 436.5 247.5 l 1
 436.5 495 l 1
126.5 550 m 1
 134 550 l 1
 484 550 l 1
 491.5 550 l 1
 491.5 542.5 l 1
 491.5 199.842657343 l 1
 491.5 192.5 l 1
 484 192.5 l 1
 134 192.5 l 1
 126.5 192.5 l 1
 126.5 199.842657343 l 1
 126.5 542.5 l 1
 126.5 550 l 1
EndSplineSet
EndChar

StartChar: uni25FB
Encoding: 9723 9723 220
Width: 617
VWidth: 0
Flags: W
LayerCount: 2
Fore
SplineSet
491.5 550 m 1
 126.5 550 l 1
 126.5 192.5 l 1
 491.5 192.5 l 1
 491.5 550 l 1
51.5 625 m 1
 59 625 l 1
 559 625 l 1
 566.5 625 l 1
 566.5 617.5 l 1
 566.5 124.889162562 l 1
 566.5 117.5 l 1
 559 117.5 l 1
 59 117.5 l 1
 51.5 117.5 l 1
 51.5 124.889162562 l 1
 51.5 617.5 l 1
 51.5 625 l 1
EndSplineSet
EndChar

StartChar: upblock
Encoding: 9600 9600 221
Width: 617
VWidth: 0
Flags: W
LayerCount: 2
Fore
SplineSet
-7.5 875 m 1
 0 875 l 1
 617 875 l 1
 624.5 875 l 1
 624.5 867.5 l 1
 624.5 382.5 l 1
 624.5 360 l 1
 617 360 l 1
 0 360 l 1
 -7.5 360 l 1
 -7.5 382.5 l 1
 -7.5 867.5 l 1
 -7.5 875 l 1
EndSplineSet
EndChar

StartChar: uni2581
Encoding: 9601 9601 222
Width: 617
VWidth: 0
Flags: W
LayerCount: 2
Fore
SplineSet
-7.5 -204 m 1
 0 -204 l 1
 617 -204 l 1
 624.5 -204 l 1
 624.5 -211.5 l 1
 624.5 -367.5 l 1
 624.5 -375 l 1
 617 -375 l 1
 0 -375 l 1
 -7.5 -375 l 1
 -7.5 -367.5 l 1
 -7.5 -211.5 l 1
 -7.5 -204 l 1
EndSplineSet
EndChar

StartChar: uni2582
Encoding: 9602 9602 223
Width: 617
VWidth: 0
Flags: W
LayerCount: 2
Fore
SplineSet
-7.5 -47 m 1
 0 -47 l 1
 617 -47 l 1
 624.5 -47 l 1
 624.5 -54.5 l 1
 624.5 -367.5 l 1
 624.5 -375 l 1
 617 -375 l 1
 0 -375 l 1
 -7.5 -375 l 1
 -7.5 -367.5 l 1
 -7.5 -54.5 l 1
 -7.5 -47 l 1
EndSplineSet
EndChar

StartChar: uni2583
Encoding: 9603 9603 224
Width: 617
VWidth: 0
Flags: W
LayerCount: 2
Fore
SplineSet
-7.5 94 m 1
 0 94 l 1
 617 94 l 1
 624.5 94 l 1
 624.5 86.5 l 1
 624.5 -367.5 l 1
 624.5 -390 l 1
 617 -390 l 1
 0 -390 l 1
 -7.5 -390 l 1
 -7.5 -367.5 l 1
 -7.5 86.5 l 1
 -7.5 94 l 1
EndSplineSet
EndChar

StartChar: dnblock
Encoding: 9604 9604 225
Width: 617
VWidth: 0
Flags: W
LayerCount: 2
Fore
SplineSet
-7.5 250 m 1
 0 250 l 1
 617 250 l 1
 624.5 250 l 1
 624.5 242.5 l 1
 624.5 -367.5 l 1
 624.5 -390 l 1
 617 -390 l 1
 0 -390 l 1
 -7.5 -390 l 1
 -7.5 -367.5 l 1
 -7.5 242.5 l 1
 -7.5 250 l 1
EndSplineSet
EndChar

StartChar: uni2585
Encoding: 9605 9605 226
Width: 617
VWidth: 0
Flags: W
LayerCount: 2
Fore
SplineSet
15 406 m 1
 602 406 l 1
 624.5 406 l 1
 624.5 406 l 1
 624.5 -375 l 1
 624.5 -375 l 1
 632 -375 l 1
 -15 -375 l 1
 -7.5 -375 l 1
 -7.5 -375 l 1
 -7.5 406 l 1
 -7.5 406 l 1
 15 406 l 1
EndSplineSet
EndChar

StartChar: uni2586
Encoding: 9606 9606 227
Width: 617
VWidth: 0
Flags: W
LayerCount: 2
Fore
SplineSet
15 563 m 1
 602 563 l 1
 624.5 563 l 1
 624.5 563 l 1
 624.5 -375 l 1
 624.5 -375 l 1
 632 -375 l 1
 -15 -375 l 1
 -7.5 -375 l 1
 -7.5 -375 l 1
 -7.5 563 l 1
 -7.5 563 l 1
 15 563 l 1
EndSplineSet
EndChar

StartChar: uni2587
Encoding: 9607 9607 228
Width: 617
VWidth: 0
Flags: W
LayerCount: 2
Fore
SplineSet
15 718 m 1
 602 718 l 1
 624.5 718 l 1
 624.5 718 l 1
 624.5 -375 l 1
 624.5 -375 l 1
 632 -375 l 1
 -15 -375 l 1
 -7.5 -375 l 1
 -7.5 -375 l 1
 -7.5 718 l 1
 -7.5 718 l 1
 15 718 l 1
EndSplineSet
EndChar

StartChar: uni25A3
Encoding: 9635 9635 229
Width: 617
VWidth: 0
Flags: W
LayerCount: 2
Fore
SplineSet
549.5 542 m 1
 67.5 542 l 1
 67.5 75 l 1
 549.5 75 l 1
 549.5 542 l 1
-7.5 617 m 1
 0 617 l 1
 617 617 l 1
 624.5 617 l 1
 624.5 609.5 l 1
 624.5 7.5 l 1
 624.5 0 l 1
 617 0 l 1
 0 0 l 1
 -7.5 0 l 1
 -7.5 7.5 l 1
 -7.5 609.5 l 1
 -7.5 617 l 1
151.5 466.5 m 1
 159 466.5 l 1
 459 466.5 l 1
 466.5 466.5 l 1
 466.5 459 l 1
 466.5 159 l 1
 466.5 151.5 l 1
 459 151.5 l 1
 159 151.5 l 1
 151.5 151.5 l 1
 151.5 159 l 1
 151.5 459 l 1
 151.5 466.5 l 1
EndSplineSet
EndChar

StartChar: uni2589
Encoding: 9609 9609 230
Width: 617
VWidth: 0
Flags: W
LayerCount: 2
Fore
SplineSet
15 875 m 1
 525 875 l 1
 547.5 875 l 1
 547.5 875 l 1
 547.5 -375 l 1
 547.5 -375 l 1
 555 -375 l 1
 -15 -375 l 1
 -7.5 -375 l 1
 -7.5 -375 l 1
 -7.5 875 l 1
 -7.5 875 l 1
 15 875 l 1
EndSplineSet
EndChar

StartChar: uni258A
Encoding: 9610 9610 231
Width: 617
VWidth: 0
Flags: W
LayerCount: 2
Fore
SplineSet
15 875 m 1
 448 875 l 1
 470.5 875 l 1
 470.5 875 l 1
 470.5 -375 l 1
 470.5 -375 l 1
 478 -375 l 1
 -15 -375 l 1
 -7.5 -375 l 1
 -7.5 -375 l 1
 -7.5 875 l 1
 -7.5 875 l 1
 15 875 l 1
EndSplineSet
EndChar

StartChar: uni258B
Encoding: 9611 9611 232
Width: 617
VWidth: 0
Flags: W
LayerCount: 2
Fore
SplineSet
15 875 m 1
 371 875 l 1
 393.5 875 l 1
 393.5 875 l 1
 393.5 -375 l 1
 393.5 -375 l 1
 401 -375 l 1
 -15 -375 l 1
 -7.5 -375 l 1
 -7.5 -375 l 1
 -7.5 875 l 1
 -7.5 875 l 1
 15 875 l 1
EndSplineSet
EndChar

StartChar: lfblock
Encoding: 9612 9612 233
Width: 617
VWidth: 0
Flags: W
LayerCount: 2
Fore
SplineSet
15 875 m 1
 294 875 l 1
 316.5 875 l 1
 316.5 875 l 1
 316.5 -375 l 1
 316.5 -375 l 1
 324 -375 l 1
 -15 -375 l 1
 -7.5 -375 l 1
 -7.5 -375 l 1
 -7.5 875 l 1
 -7.5 875 l 1
 15 875 l 1
EndSplineSet
EndChar

StartChar: uni258D
Encoding: 9613 9613 234
Width: 617
VWidth: 0
Flags: W
LayerCount: 2
Fore
SplineSet
15 875 m 1
 216 875 l 1
 238.5 875 l 1
 238.5 875 l 1
 238.5 -375 l 1
 238.5 -375 l 1
 246 -375 l 1
 -15 -375 l 1
 -7.5 -375 l 1
 -7.5 -375 l 1
 -7.5 875 l 1
 -7.5 875 l 1
 15 875 l 1
EndSplineSet
EndChar

StartChar: uni258E
Encoding: 9614 9614 235
Width: 617
VWidth: 0
Flags: W
LayerCount: 2
Fore
SplineSet
15 875 m 1
 139 875 l 1
 161.5 875 l 1
 161.5 875 l 1
 161.5 -375 l 1
 161.5 -375 l 1
 169 -375 l 1
 -15 -375 l 1
 -7.5 -375 l 1
 -7.5 -375 l 1
 -7.5 875 l 1
 -7.5 875 l 1
 15 875 l 1
EndSplineSet
EndChar

StartChar: uni258F
Encoding: 9615 9615 236
Width: 617
VWidth: 0
Flags: W
LayerCount: 2
Fore
SplineSet
15 875 m 1
 62 875 l 1
 84.5 875 l 1
 84.5 875 l 1
 84.5 -375 l 1
 84.5 -375 l 1
 92 -375 l 1
 -15 -375 l 1
 -7.5 -375 l 1
 -7.5 -375 l 1
 -7.5 875 l 1
 -7.5 875 l 1
 15 875 l 1
EndSplineSet
EndChar

StartChar: rtblock
Encoding: 9616 9616 237
Width: 617
VWidth: 0
Flags: W
LayerCount: 2
Fore
SplineSet
323 875 m 1
 602 875 l 1
 624.5 875 l 1
 624.5 875 l 1
 624.5 -375 l 1
 624.5 -375 l 1
 632 -375 l 1
 293 -375 l 1
 300.5 -375 l 1
 300.5 -375 l 1
 300.5 875 l 1
 300.5 875 l 1
 323 875 l 1
EndSplineSet
EndChar

StartChar: H18543
Encoding: 9642 9642 238
Width: 617
VWidth: 0
Flags: W
LayerCount: 2
Fore
SplineSet
126.5 550 m 1
 134 550 l 1
 484 550 l 1
 491.5 550 l 1
 491.5 542.5 l 1
 491.5 192.5 l 1
 491.5 185 l 1
 484 185 l 1
 134 185 l 1
 126.5 185 l 1
 126.5 192.5 l 1
 126.5 542.5 l 1
 126.5 550 l 1
EndSplineSet
EndChar

StartChar: H18551
Encoding: 9643 9643 239
Width: 617
VWidth: 0
Flags: W
LayerCount: 2
Fore
SplineSet
411.5 470 m 1
 206.5 470 l 1
 206.5 272.5 l 1
 411.5 272.5 l 1
 411.5 470 l 1
151.5 525 m 1
 159 525 l 1
 459 525 l 1
 466.5 525 l 1
 466.5 517.5 l 1
 466.5 224.817073171 l 1
 466.5 217.5 l 1
 459 217.5 l 1
 159 217.5 l 1
 151.5 217.5 l 1
 151.5 224.817073171 l 1
 151.5 517.5 l 1
 151.5 525 l 1
EndSplineSet
EndChar

StartChar: triagup
Encoding: 9650 9650 240
Width: 617
VWidth: 0
Flags: W
LayerCount: 2
Fore
SplineSet
307.989127705 626.270513355 m 1
 314.70602877 612.858448768 l 1
 623.70602877 10.5990324432 l 1
 629.144052546 -1.42108547152e-14 l 1
 617 0 l 1
 0 0 l 1
 -12.1264608096 0 l 1
 -6.71037768483 10.5905388166 l 1
 301.289622315 612.849750935 l 1
 307.989127705 626.270513355 l 1
EndSplineSet
EndChar

StartChar: uni25B3
Encoding: 9651 9651 241
Width: 617
VWidth: 0
Flags: W
LayerCount: 2
Fore
SplineSet
507.826038497 75 m 1
 308.015843567 471.792887102 l 1
 109.148149556 75 l 1
 507.826038497 75 l 1
307.989127705 626.270513355 m 1
 314.70602877 612.858448768 l 1
 623.70602877 10.5990324432 l 1
 629.144052546 -1.42108547152e-14 l 1
 617 0 l 1
 0 0 l 1
 -12.1264608096 0 l 1
 -6.71037768483 10.5905388166 l 1
 301.289622315 612.849750935 l 1
 307.989127705 626.270513355 l 1
EndSplineSet
EndChar

StartChar: uni25B4
Encoding: 9652 9652 242
Width: 617
VWidth: 0
Flags: W
LayerCount: 2
Fore
SplineSet
314.700528702 550 m 1
 490.700528702 203.369408719 l 1
 496.166288515 192.5 l 1
 484 192.5 l 1
 134 192.5 l 1
 121.895734875 192.5 l 1
 127.284138361 203.338742644 l 1
 301.284138361 550 l 1
 307.961667256 563.401144921 l 1
 314.700528702 550 l 1
EndSplineSet
EndChar

StartChar: uni25B5
Encoding: 9653 9653 243
Width: 617
VWidth: 0
Flags: W
LayerCount: 2
Fore
SplineSet
382.769327918 272.5 m 1
 308.077912312 419.307265157 l 1
 235.103540743 272.5 l 1
 382.769327918 272.5 l 1
307.955278402 534.27056946 m 1
 314.699247814 520.871954733 l 1
 465.699247814 228.109661338 l 1
 471.17146503 217.5 l 1
 459 217.5 l 1
 159 217.5 l 1
 146.90089557 217.5 l 1
 152.282863801 228.074717307 l 1
 301.282863801 520.836177646 l 1
 307.955278402 534.27056946 l 1
EndSplineSet
EndChar

StartChar: uni25B6
Encoding: 9654 9654 244
Width: 617
VWidth: 0
Flags: W
LayerCount: 2
Fore
SplineSet
620.358448768 368.29397123 m 1
 3.35844876835 66 l 1
 -7.5 60.5619762246 l 1
 -7.5 66 l 1
 -7.5 683 l 1
 -7.5 688.416083125 l 1
 3.34975093505 683 l 1
 620.349750935 381.710377685 l 1
 633.770513355 375.010872295 l 1
 620.358448768 368.29397123 l 1
EndSplineSet
EndChar

StartChar: uni25B7
Encoding: 9655 9655 245
Width: 617
VWidth: 0
Flags: W
LayerCount: 2
Fore
SplineSet
464.292887102 374.984156433 m 1
 67.5 567.146834817 l 1
 67.5 181.872591521 l 1
 464.292887102 374.984156433 l 1
620.358448768 368.29397123 m 1
 3.35844876835 66 l 1
 -7.5 60.5619762246 l 1
 -7.5 66 l 1
 -7.5 683 l 1
 -7.5 688.416083125 l 1
 3.34975093505 683 l 1
 620.349750935 381.710377685 l 1
 633.770513355 375.010872295 l 1
 620.358448768 368.29397123 l 1
EndSplineSet
EndChar

StartChar: uni25B8
Encoding: 9656 9656 246
Width: 617
VWidth: 0
Flags: W
LayerCount: 2
Fore
SplineSet
487.369408719 368.299471298 m 1
 137.369408719 192.299471298 l 1
 126.5 186.833711485 l 1
 126.5 199 l 1
 126.5 549 l 1
 126.5 554.388403486 l 1
 137.338742644 549 l 1
 487.338742644 375 l 1
 500.77055364 368.322471105 l 1
 487.369408719 368.299471298 l 1
EndSplineSet
EndChar

StartChar: uni25B9
Encoding: 9657 9657 247
Width: 617
VWidth: 0
Flags: W
LayerCount: 2
Fore
SplineSet
206.5 300.230672082 m 1
 353.307265157 374.922087688 l 1
 206.5 447.896459257 l 1
 206.5 300.230672082 l 1
475.77056946 367.544721598 m 1
 462.371954733 360.800752186 l 1
 162.371954733 209.800752186 l 1
 151.5 204.32853497 l 1
 151.5 216.5 l 1
 151.5 516.5 l 1
 151.5 528.59910443 l 1
 162.336177646 523.217136199 l 1
 462.336177646 374.217136199 l 1
 475.77056946 367.544721598 l 1
EndSplineSet
EndChar

StartChar: uni25C0
Encoding: 9664 9664 248
Width: 617
VWidth: 0
Flags: W
LayerCount: 2
Fore
SplineSet
-3.35844876835 380.70602877 m 1
 613.641551232 683 l 1
 624.5 688.438023775 l 1
 624.5 683 l 1
 624.5 66 l 1
 624.5 60.5839168752 l 1
 613.650249065 66 l 1
 -3.34975093505 367.289622315 l 1
 -16.7705133555 373.989127705 l 1
 -3.35844876835 380.70602877 l 1
EndSplineSet
EndChar

StartChar: uni25C1
Encoding: 9665 9665 249
Width: 617
VWidth: 0
Flags: W
LayerCount: 2
Fore
SplineSet
152.707112898 374.015843567 m 1
 549.5 181.853165183 l 1
 549.5 567.127408479 l 1
 152.707112898 374.015843567 l 1
-3.35844876835 380.70602877 m 1
 613.641551232 683 l 1
 624.5 688.438023775 l 1
 624.5 683 l 1
 624.5 66 l 1
 624.5 60.5839168752 l 1
 613.650249065 66 l 1
 -3.34975093505 367.289622315 l 1
 -16.7705133555 373.989127705 l 1
 -3.35844876835 380.70602877 l 1
EndSplineSet
EndChar

StartChar: uni25C2
Encoding: 9666 9666 250
Width: 617
VWidth: 0
Flags: W
LayerCount: 2
Fore
SplineSet
130.630591281 373 m 1
 480.630591281 549 l 1
 491.5 554.465759813 l 1
 491.5 549 l 1
 491.5 199 l 1
 491.5 186.895734875 l 1
 480.661257356 192.284138361 l 1
 130.661257356 366.284138361 l 1
 117.22944636 372.961667256 l 1
 130.630591281 373 l 1
EndSplineSet
EndChar

StartChar: uni25C3
Encoding: 9667 9667 251
Width: 617
VWidth: 0
Flags: W
LayerCount: 2
Fore
SplineSet
411.5 447.769327918 m 1
 264.692734843 373.077912312 l 1
 411.5 300.103540743 l 1
 411.5 447.769327918 l 1
142.22943054 365.455278402 m 1
 155.628045267 372.199247814 l 1
 455.628045267 523.199247814 l 1
 466.5 528.67146503 l 1
 466.5 516.5 l 1
 466.5 216.5 l 1
 466.5 204.40089557 l 1
 455.663822354 209.782863801 l 1
 155.663822354 358.782863801 l 1
 142.22943054 365.455278402 l 1
EndSplineSet
EndChar

StartChar: triagdn
Encoding: 9660 9660 252
Width: 617
VWidth: 0
Flags: W
LayerCount: 2
Fore
SplineSet
309.010872295 -9.27051335549 m 1
 302.29397123 4.14155123165 l 1
 -6.70602877047 606.141551232 l 1
 -12.1440525459 617 l 1
 0 617 l 1
 617 617 l 1
 629.12646081 617 l 1
 623.710377685 606.150249065 l 1
 315.710377685 4.15024906495 l 1
 309.010872295 -9.27051335549 l 1
EndSplineSet
EndChar

StartChar: uni25BD
Encoding: 9661 9661 253
Width: 617
VWidth: 0
Flags: W
LayerCount: 2
Fore
SplineSet
109.173961503 542 m 1
 308.984156433 145.207112898 l 1
 507.851850444 542 l 1
 109.173961503 542 l 1
309.010872295 -9.27051335549 m 1
 302.29397123 4.14155123165 l 1
 -6.70602877047 606.141551232 l 1
 -12.1440525459 617 l 1
 0 617 l 1
 617 617 l 1
 629.12646081 617 l 1
 623.710377685 606.150249065 l 1
 315.710377685 4.15024906495 l 1
 309.010872295 -9.27051335549 l 1
EndSplineSet
EndChar

StartChar: uni25BE
Encoding: 9662 9662 254
Width: 617
VWidth: 0
Flags: W
LayerCount: 2
Fore
SplineSet
303.299471298 196.630591281 m 1
 127.299471298 543.261182563 l 1
 121.833711485 550 l 1
 149 550 l 1
 469 550 l 1
 496.104265125 550 l 1
 490.715861639 543.322514713 l 1
 316.715861639 196.661257356 l 1
 310.038332744 183.22944636 l 1
 303.299471298 196.630591281 l 1
EndSplineSet
EndChar

StartChar: uni25BF
Encoding: 9663 9663 255
Width: 617
VWidth: 0
Flags: W
LayerCount: 2
Fore
SplineSet
235.230672082 477.5 m 1
 309.922087688 330.692734843 l 1
 382.896459257 477.5 l 1
 235.230672082 477.5 l 1
310.044721598 200.72943054 m 1
 303.300752186 214.128045267 l 1
 152.300752186 514.128045267 l 1
 146.82853497 525 l 1
 159 525 l 1
 459 525 l 1
 471.09910443 525 l 1
 465.717136199 514.163822354 l 1
 316.717136199 214.163822354 l 1
 310.044721598 200.72943054 l 1
EndSplineSet
EndChar

StartChar: triagrt
Encoding: 9658 9658 256
Width: 617
VWidth: 0
Flags: W
LayerCount: 2
Fore
SplineSet
619.057320525 367.787688841 m 1
 2.05732052515 191.787688841 l 1
 -7.5 189.061451544 l 1
 -7.5 199 l 1
 -7.5 549 l 1
 -7.5 551.689152617 l 1
 2.03567336063 549 l 1
 619.035673361 375 l 1
 644.485930835 367.822779902 l 1
 619.057320525 367.787688841 l 1
EndSplineSet
EndChar

StartChar: uni25BB
Encoding: 9659 9659 257
Width: 617
VWidth: 0
Flags: W
LayerCount: 2
Fore
SplineSet
371.205712829 374.923980855 m 1
 67.5 451.910064475 l 1
 67.5 288.91882324 l 1
 371.205712829 374.923980855 l 1
619.057320525 367.787688841 m 1
 2.05732052515 191.787688841 l 1
 -7.5 189.061451544 l 1
 -7.5 199 l 1
 -7.5 549 l 1
 -7.5 551.689152617 l 1
 2.03567336063 549 l 1
 619.035673361 375 l 1
 644.485930835 367.822779902 l 1
 619.057320525 367.787688841 l 1
EndSplineSet
EndChar

StartChar: triaglf
Encoding: 9668 9668 258
Width: 617
VWidth: 0
Flags: W
LayerCount: 2
Fore
SplineSet
-2.05732052515 373 m 1
 614.942679475 549 l 1
 624.5 551.726237297 l 1
 624.5 549 l 1
 624.5 199 l 1
 624.5 189.092396443 l 1
 614.964326639 191.78154906 l 1
 -2.03567336063 365.78154906 l 1
 -27.4859308348 372.958769158 l 1
 -2.05732052515 373 l 1
EndSplineSet
EndChar

StartChar: uni25C5
Encoding: 9669 9669 259
Width: 617
VWidth: 0
Flags: W
LayerCount: 2
Fore
SplineSet
245.794287171 373.076019145 m 1
 549.5 288.862635646 l 1
 549.5 451.864947226 l 1
 245.794287171 373.076019145 l 1
-2.05732052515 373 m 1
 614.942679475 549 l 1
 624.5 551.726237297 l 1
 624.5 549 l 1
 624.5 199 l 1
 624.5 189.092396443 l 1
 614.964326639 191.78154906 l 1
 -2.03567336063 365.78154906 l 1
 -27.4859308348 372.958769158 l 1
 -2.05732052515 373 l 1
EndSplineSet
EndChar

StartChar: ellipsis
Encoding: 8230 8230 260
Width: 617
Flags: W
LayerCount: 2
Fore
SplineSet
-7.5 82.5 m 0
 -7.5 131.809763075 39.5154565954 180 89 180 c 0
 138.420582584 180 186.5 131.899386655 186.5 82.5 c 0
 186.5 33.0794174157 138.399386655 -15 89 -15 c 0
 39.4990726034 -15 -7.5 33.2084805127 -7.5 82.5 c 0
430.5 82.5 m 0
 430.5 131.809763075 477.515456595 180 527 180 c 0
 576.420582584 180 624.5 131.899386655 624.5 82.5 c 0
 624.5 33.0794174157 576.399386655 -15 527 -15 c 0
 477.499072603 -15 430.5 33.2084805127 430.5 82.5 c 0
211.5 82.5 m 0
 211.5 131.809763075 258.515456595 180 308 180 c 0
 357.420582584 180 405.5 131.899386655 405.5 82.5 c 0
 405.5 33.0794174157 357.399386655 -15 308 -15 c 0
 258.499072603 -15 211.5 33.2084805127 211.5 82.5 c 0
EndSplineSet
EndChar

StartChar: circumflex
Encoding: 710 710 261
Width: 617
Flags: W
LayerCount: 2
Fore
SplineSet
357.866209006 750 m 1
 360.109035751 746.850825461 l 1
 506.109035751 541.850825461 l 1
 514.549135835 530 l 1
 500 530 l 1
 404 530 l 1
 400.358089326 530 l 1
 398.105966868 532.86207229 l 1
 308.062291572 647.292576312 l 1
 219.941057446 532.922463935 l 1
 217.689322938 530 l 1
 214 530 l 1
 117 530 l 1
 102.393007147 530 l 1
 110.905044872 541.870528799 l 1
 257.905044872 746.870528799 l 1
 260.149104708 750 l 1
 264 750 l 1
 354 750 l 1
 357.866209006 750 l 1
EndSplineSet
EndChar

StartChar: ring
Encoding: 730 730 262
Width: 617
VWidth: 0
Flags: W
LayerCount: 2
Fore
SplineSet
441.500611251 644.23345822 m 0
 441.476921794 642.42118088 438.682217636 537.5 308 537.5 c 0
 178.708935451 537.5 176.5 640.606082132 176.5 644.232954545 c 0
 176.5 647.912098821 178.762800301 750 308 750 c 0
 439.268544542 750 441.489530229 645.07200603 441.500611251 644.23345822 c 0
308 673 m 0
 253.2997441 673 253.537169546 644.952986882 253.502176498 644.25 c 0
 253.569480135 642.897915025 253.882259093 615.5 308 615.5 c 0
 361.052116278 615.5 363.217956725 641.831679345 363.485703787 644.25 c 0
 363.142507311 647.349787987 360.454347109 673 308 673 c 0
EndSplineSet
EndChar

StartChar: caron
Encoding: 711 711 263
Width: 617
Flags: W
LayerCount: 2
Fore
SplineSet
357.866209006 530 m 1
 354 530 l 1
 264 530 l 1
 260.149104708 530 l 1
 257.905044872 533.129471201 l 1
 110.905044872 738.129471201 l 1
 102.393007147 750 l 1
 117 750 l 1
 214 750 l 1
 217.689322938 750 l 1
 219.941057446 747.077536065 l 1
 308.062291572 632.707423688 l 1
 398.105966868 747.13792771 l 1
 400.358089326 750 l 1
 404 750 l 1
 500 750 l 1
 514.549135835 750 l 1
 506.109035751 738.149174539 l 1
 360.109035751 533.149174539 l 1
 357.866209006 530 l 1
EndSplineSet
EndChar
